<?xml version="1.0" encoding="utf-8"?>
<!-- Generator: Adobe Illustrator 22.1.0, SVG Export Plug-In . SVG Version: 6.00 Build 0)  -->
<svg version="1.1" id="Слой_1" xmlns="http://www.w3.org/2000/svg" xmlns:xlink="http://www.w3.org/1999/xlink" x="0px" y="0px"
	 viewBox="0 0 1010 910" style="enable-background:new 0 0 1010 910;" xml:space="preserve">
<style type="text/css">
	.st0{fill:#F162B1;}
	.st1{fill:#FFFFFF;}
	.st2{fill:#F162B1;stroke:#FFFFFF;stroke-width:4;stroke-miterlimit:10;}
	.st3{fill:none;stroke:#FFFFFF;stroke-width:6;stroke-miterlimit:10;}
	.st4{fill:none;stroke:#FFFFFF;stroke-width:4;stroke-miterlimit:10;}
	.st5{fill:#FFFFFF;stroke:#FFFFFF;stroke-width:3;stroke-miterlimit:10;}
	.st6{stroke:#FFFFFF;stroke-width:5;stroke-miterlimit:10;}
	.st7{stroke:#FFFFFF;stroke-width:4;stroke-miterlimit:10;}
	.st8{fill:#FFFFFF;stroke:#FFFFFF;stroke-miterlimit:10;}
	.st9{fill:#FFFFFF;stroke:#FFFFFF;stroke-width:4;stroke-miterlimit:10;}
	.st10{fill:#FFFFFF;stroke:#000000;stroke-miterlimit:10;}
	.st11{stroke:#000000;stroke-miterlimit:10;}
</style>
<g>
	<path class="st0" d="M58.1,710c-3.5,0-6.9-0.5-10-1.6c-6.8-2.3-16.8-7.7-25.8-20.4c-10.7-15.1-17.3-36.7-19.5-64.1
		c-3.4-42.6,5.1-99.6,22.3-148.7c9.7-27.8,21.7-51.8,35.5-71.4c15.6-22.1,33.3-37.9,52.6-47c7.5-3.6,15.7-5.4,24.3-5.4
		c0.6,0,1.2,0,1.8,0c3.3,0.1,6.7,0.3,10.2,0.7c2.6,0.3,11.6,2.1,20.1,14.4c9.5,13.6,14.8,34.4,15.7,61.9
		c1.2,35.5-5.2,81.1-18.8,135.7l-0.1,0.6l-0.4,0.4c-0.3,0.3-6.6,6.2-17.5,6.2c-10.1,0-20.7-5.1-31.2-15.1l-1.1-1.1l0.7-1.3
		c0.1-0.2,12.9-24.3,25.4-76.7c4.5-18.8,6.8-38.1,6.8-57.4v-11.5c-0.1-1.6-0.4-5.9-1.9-9.8c-0.7-1.8-2.9-6.1-6.8-6.9
		c-0.4-0.1-1-0.2-1.9-0.2c-7.9,0-48.8,8.2-84.1,169.5c-1.9,8.6-3.1,17.2-3.5,25.8c-0.3,5-0.4,8.9-0.2,11.5c0.1,1.6,0.1,3.1,0.1,4.7
		l-0.1,10.6c-0.1,11,1.4,21.3,4.4,30.8c4.2,13.1,12.5,28.8,28.7,28.8c24.5,0,59.4-33.2,103.7-98.8c2.7-3.9,4.8-8.2,6.4-12.7
		c7.2-20.1,26.5-67.4,51.9-73.1l0.2,0l6.5-0.3c0.3,0,0.7,0,1,0c2,0,4,0.3,5.9,0.9c3.9,1.2,11.8,4,21,9.6l1.3-0.2l15.6-21.6
		c0.5-0.9,2.7-4.1,8.1-4.1c3.2,0,6.9,1.1,11.1,3.4c4.3,2.3,6.6,3.3,8,3.8c2.2,0.9,2.7,1.3,3.5,3.3c0.3,0.7,0.6,1.7,1.4,3.3
		c2.4,4.8-1.6,15.3-8.1,32.5c-4,10.6-8.9,23.7-13.3,38.1c-2.5,8.2-3.8,16.9-4,25.7l-0.2,8.4c0.2,0.3,0.5,0.9,1.1,1.5
		c0.1,0.1,0.7,0.3,1.9,0.3c1,0,2.1-0.2,2.8-0.5c4.3-4.3,49.5-69.3,71.3-160.1c-5,0.7-16.6,3.3-27.1,13.9l-1.1,1.1l-1.3-0.8
		c-0.7-0.4-16.6-9.8-15.3-26.5l0-0.1l0-0.1c0.3-1.7,5-16.7,61.9-25c2.5-6,14.9-34.5,27.9-41.1l0.1-0.1l0.1,0c0.1,0,2.9-1,7-1
		c6.6,0,18.7,2.7,25.1,20.6c0.6,1.4,2.1,7.1-8.4,18.6c1.9-0.2,4.5-0.4,7.5-0.4c19.6,0,30.9,8.1,31.8,22.9l0,0.1v21.4l-3.2-2.6
		c-0.1-0.1-13.6-10.6-26.2-10.6c-0.2,0-0.5,0-0.7,0c-4.1,0.1-8.4,0.2-13,0.2c-5.8,0-10.4-0.1-12.5-0.2
		c-11.9,19.5-36.6,72.7-49.1,141.8v31.1c0,5.7,0.8,19.1,2.7,24.4c3,8.2,7.1,12.4,12.3,12.4c4.7,0,10.4-3.2,16.9-9.6
		c-2.1-1.9-5.9-5.6-9.5-10.7c-4.5-6.2-6.9-14-6.9-21.9l0.1-12.4c0-3.3,1.4-17.1,2.1-20.4c4.8-22.1,19.4-76.1,49.9-100
		c6-4.7,13.8-7.3,21.7-7.3h1.8c11.5,0,22.2,5.4,28.7,14.3c2,2.7,3.7,6.6,4.5,10.3c0.4,1.5,0.5,3.1,0.5,5c0,19.3-5,37.7-14.4,53.2
		c-3.1,5.1-6.6,9.8-10.5,14.1c-8.9,9.9-21.8,15.5-35.2,15.5l-0.9,0l-0.3-0.1c-0.1,0-1.7-0.6-3.2-1.8c-1.5,3.2-3.5,9.4-3.4,18.2
		l0.2,16.4c0,3.4,0.9,6.5,2.5,9c1,1.5,2,2.5,2.9,2.8l2.6,0.2c4.9-3.3,45-31.7,72.7-109.5c2.6-7.4,5-15.1,7-23
		c2-7.9,6.5-23.2,14.2-36.5c2.8-4.9,7.9-7.9,13.4-7.9c1,0,2,0.1,3,0.3l0.3,0.1c5.3,1.2,9.9,4.6,12.5,9.4c2.7,4.9,3.1,10.7,1.2,16
		c-1.2,3.4-3.1,7.1-5.6,10.9c-3.7,9.7-7.3,20.3-9.2,27c2.5-3.9,6.1-10.7,10.7-22.1c3.1-7.6,10-12.8,17.5-13.2c0.4,0,0.9,0,1.4,0
		c0.8,0,1.7,0,2.5,0.1c12.4,1.2,22.2,11.7,23.1,24.9c0.8,11.5,2.3,29.7,4,41.8c3.1-14.2,9.4-40,16.1-52.5c2.3-4.3,6.7-7,11.6-7
		l10.5,0c7.7,0,14.5,5.5,16.1,13l0.2,0.9l-0.2,0.5c-0.1,0.3-11.3,30.1-21.9,74.1c0,1.3,0,9.4,3.4,13.8c3.3-2.1,13.3-10.1,23-34
		c2-4.9,3.6-8.8,4.8-11.9c5.5-13.7,5.5-13.7,8-18.5c0.6-1.1,1.2-2.4,2.2-4.2c2.6-5.2,4.9-13.7,7.3-22.8c1.3-4.8,2.6-9.7,4.1-14.6
		c3.3-10.8,12.9-18.1,24-18.1c7.1,0,13.6,3,18.4,8.5c0.2,0.2,0.4,0.4,0.6,0.7l0.5,0.6l-0.1,0.8c-0.1,0.6-1.3,11.7-12.2,38.4
		c3.2-4.7,6.7-9.8,10.4-14.9c24.7-34.8,29.7-35.3,31.6-35.4l0.2,0l0.2,0c1.7,0.1,3.7,0.1,5.7,0.2c9.3,0.1,22,0.2,27.4,11.5
		c2.1,4.3,2.4,9.5,1,14.7c-3.5,12.6-15.1,54.9-16.7,72.9l0.6,9.8l0.6,1.4l2.3-0.3c1.4-1.2,8.3-7.4,22.3-29.2c1.6-2.5,2.6-5.5,3-8.6
		c0.7-6,3.1-17.1,4.4-20.1c0.3-0.6,0.6-1.3,0.9-2c0.4-0.8,0.8-1.6,1-2.2l0.2-0.5c12-33,30.1-59.6,53.8-78.9l0.2-0.2l0.3-0.1
		c0.2-0.1,5.2-2.2,12-2.2c5.6,0,10.7,1.4,15.2,4.3l9.8,6.3c1.8-5.1,7-16,17.2-16.4l5.3-0.2c0.3,0,0.6,0,0.8,0c3.3,0,6.4,0.7,9.1,2.1
		c5.5,2.7,7.9,6.2,7.8,10.8c0,1-0.1,2-0.2,2.9c-0.1,1.1-0.2,2.2-0.2,3.2c-0.2,7.9-1.5,29.2-8.7,56.6c-2.5,9.3-1.1,10.8-1.1,10.8
		c3.6,0,15.1-12.1,23.8-23.3c0.3-0.4,8-10.1,19.7-13.5c0.7-0.2,1.5-0.3,2.1-0.3c1.5,0,2.8,0.6,3.7,1.6c1.6,1.8,2,5,1.4,9.8
		c-1.4,10-6.8,19.3-15,25.6c-7.5,5.7-14.8,11.9-22,18.2c-14.9,13.2-26.4,30.4-33.3,49.5c-14.7,40.6-43.5,110.3-71,121.5
		c-6,2.4-11.6,3.7-16.7,3.7c-8.5,0-15.6-3.5-20.7-10.1c-8.9-11.4-9.7-29.1-6.7-40.7c4.6-17.7,55-73.3,76.4-96.3
		c8.5-9.1,13.8-20.1,15.4-31.8c0.3-2.3,0.5-4.5,0.5-6.7c-6.5,10.8-21.9,35.3-38.1,52.3c-5.9,6.3-14.1,9.9-22.4,9.9
		c-3.1,0-6.1-0.5-9.1-1.5c-2.9-1-5.6-2.4-7.8-4.1c-3.9,6.6-16.3,26-30.7,28.9c-3.1,0.6-6.4,0.9-9.7,0.9c-8,0-15.6-1.8-21.2-5.1
		c-6.8-4-10.7-10-11.2-17.4c-1.1-15.3,0.6-42.4,4-59.9c-8.5,11.7-25.6,38.7-46,88.5c-3.8,9.2-12.6,15.4-22.1,15.4
		c-1.7,0-3.4-0.2-5.1-0.6c-4.8-1.2-8.4-3.8-10.7-7.7c-2.6-4.5-3.5-10.6-2.6-18.4c-6.7,10.7-18.1,24.5-32.5,24.5
		c-4.9,0-9.8-1.6-14.5-4.9c-9.9-6.8-15.6-19-14.9-31.9l1-18.1c-2.1,0.3-5.3,0.7-9,0.7c-13.4,0-21.8-4.9-24.4-14.1l-0.1-0.5l0.1-0.5
		c0-0.1,2-7.6-1.1-21.3c-8.8,8.3-39.3,41.1-42.3,103l-0.2,3.7c-0.4,7.8-3.3,15-8.2,20.2c-3.4,3.7-7,5.6-10.5,5.6
		c-3.5,0-6.8-1.9-9.8-5.6c-3.7-4.6-5.8-10.7-5.9-17.2l-0.5-32.6l-25.2,31.5l-0.1,0.1c-0.8,0.7-19.5,18-37.3,18c-0.8,0-1.5,0-2.3-0.1
		c-2.6,3.8-12.4,16.1-34.7,22.8c-5.6,1.7-10.5,2.5-15.1,2.5c-25.4,0-39.5-26-43-79.4c-5.4,11.2-17.7,31.7-39.9,44.8
		c-3.9,2.3-8.4,3.6-13,3.6c-9.7,0-18.4-5.4-22.7-14c-3.9-7.9-5.5-18.7-4.8-32.1c-8.5,16.8-26.7,49.4-43.9,59.1l-0.1,0.1l-0.1,0.1
		c-0.1,0-2.9,1.1-7.3,1.1c-6.7,0-19.4-2.6-31-19.6c-3.9,6.3-14.3,22.4-29.1,38.5c-17.6,19.1-45.1,42.3-76.7,44l-0.1,0H58.1z"/>
	<path class="st1" d="M137.4,353.2c0.6,0,1.1,0,1.7,0c2.9,0.1,6.3,0.3,10.1,0.7c15.8,1.7,58.7,35.8,15.3,209.4c0,0-5.9,5.7-16.1,5.7
		c-7.7,0-17.9-3.2-29.9-14.6c0,0,12.8-23.8,25.6-77.2c4.5-18.9,6.8-38.4,6.8-57.9v-11.5c-0.1-2.5-0.6-6.8-2.1-10.5
		c-1.4-3.6-4.1-7.2-8.3-8.1c-0.6-0.1-1.4-0.2-2.3-0.2c-12.1,0-51.9,14.8-86.1,171.1c-1.9,8.6-3.1,17.3-3.6,26.1
		c-0.2,4.3-0.4,8.6-0.2,11.7c0.1,1.5,0.1,3.1,0.1,4.6l-0.1,10.6c-0.1,10.7,1.3,21.3,4.5,31.4c4.6,14.4,13.5,30.1,30.6,30.1
		c20.8,0,53.6-23.1,105.4-99.7c2.8-4.1,5-8.5,6.6-13.2c6.4-17.8,25.7-66.2,50.4-71.8l6.3-0.3c0.3,0,0.6,0,0.9,0
		c1.8,0,3.6,0.3,5.3,0.8c4.2,1.3,12,4.1,21.1,9.8l2.9-0.4l16.2-22.4c0,0,1.5-3.1,6.4-3.1c2.5,0,5.8,0.8,10.2,3.1
		c13.3,7.1,8.3,2,12,9.6c3.3,6.8-10.7,33.5-21.5,69.2c-2.6,8.5-3.9,17.3-4.1,26.2l-0.2,8.9c0,0,0.4,1.3,1.7,2.6
		c0.6,0.7,2,0.9,3.4,0.9c1.4,0,2.8-0.3,3.9-0.7c2.2-1,50.7-69.3,72.8-164.1c0,0-16.5,0-31.1,14.7c0,0-15.6-8.9-14.3-24.6
		c0,0,3.1-15.3,61.3-23.6c0,0,13.7-34.2,27.4-41.2c0,0,2.6-0.9,6.3-0.9c6.8,0,17.4,2.9,23.2,19.4c0,0,2.8,5.2-9.3,17.9l0.2,2.3
		c0,0,4.3-0.8,10-0.8c11.4,0,28.7,3,29.8,21v17.2c0,0-14-11.1-27.5-11.1c-0.2,0-0.5,0-0.7,0c-4.6,0.1-9,0.2-13,0.2
		c-7.9,0-13.6-0.2-13.6-0.2s-33.8,54.3-50,143.7v31.3c0,5.9,0.8,19.5,2.9,25c2.4,6.7,6.7,13.7,14.2,13.7c5,0,11.5-3.2,19.9-11.7
		c0,0-5.6-4.4-10.9-11.8c-4.3-6-6.6-13.3-6.5-20.8l0.1-12.4c0-3.2,1.4-16.9,2.1-20c3.9-17.8,18.2-74.6,49.1-98.9
		c5.9-4.6,13.1-6.9,20.5-6.9l1.8,0c10.6,0,20.8,4.8,27,13.5c2,2.7,3.5,6.4,4.2,9.6c0.4,1.5,0.5,3,0.5,4.5c0,18.4-4.6,36.6-14.1,52.1
		c-2.8,4.7-6.2,9.3-10.3,13.8c-8.7,9.6-21,14.8-33.7,14.8c-0.2,0-0.4,0-0.6,0c0,0-3.3-1.1-3.9-3.8c0,0-5.4,7.4-5.2,22.1l0.2,16.4
		c0,3.6,0.9,7.1,2.9,10.1c1.1,1.7,2.5,3.2,4.2,3.7l3.5,0.2c0,0,44-26.5,74.1-110.8c2.7-7.6,5-15.3,7-23.2c2.1-8.2,6.5-23,14-36
		c2.5-4.3,6.9-6.9,11.6-6.9c0.9,0,1.7,0.1,2.6,0.3c0.1,0,0.2,0,0.3,0.1c10.1,2.3,15.8,12.9,12.2,22.8c-1.1,3.1-2.9,6.6-5.5,10.7
		c0,0-11.8,31.3-10.9,35.1c0,0,5.3-2.3,16-28.6c2.7-6.7,8.7-11.5,15.8-11.9c0.4,0,0.8,0,1.3,0c0.7,0,1.5,0,2.3,0.1
		c11.6,1.1,20.5,11.1,21.3,23c1.2,16.5,3.4,42.9,5.9,51.9c0,0,8.8-44.5,17.9-61.7c2-3.7,5.7-6,9.8-6l10.5,0
		c6.7,0,12.7,4.7,14.2,11.4c0,0.1,0,0.2,0.1,0.3c0,0-11.2,29.8-22,74.5c0,0-0.4,11.5,5,16.6c0,0,12.9-5.1,25.3-35.8
		s9.1-23,14.9-34.5c4.1-8.1,7.2-23.3,11.6-37.7c3.2-10.6,12.6-16.7,22.1-16.7c6.1,0,12.2,2.5,16.9,7.8c0.2,0.2,0.4,0.4,0.5,0.6
		c0,0-1.7,16.6-21.2,58.7c0,0,43.6-67.7,53.1-68.5c9.8,0.7,25.5-1.9,31.4,10.6c1.9,4.1,2.1,8.9,0.9,13.3
		c-3.9,14-15.2,55.5-16.7,73.4l0.6,10.2l1.2,3.2l4.4-0.6c0,0,6.7-4.3,23.2-30c1.8-2.8,2.9-6.1,3.3-9.5c0.7-5.9,3-16.8,4.2-19.6
		c0.6-1.4,1.5-3,1.9-4.2c3.6-10,17.4-49.3,53.4-78.5c0,0,4.8-2.1,11.2-2.1c4.3,0,9.3,0.9,14.1,4c12,7.7,12,7.7,12,7.7
		s4.4-17,16.2-17.5l5.3-0.2c0.3,0,0.5,0,0.8,0c2.8,0,5.6,0.6,8.2,1.8c5,2.5,6.8,5.4,6.7,9c-0.1,2.1-0.3,4.1-0.4,6.2
		c-0.2,8.2-1.5,29.1-8.7,56.1c-2.6,9.7-1.7,13.3,0.8,13.3c6.7,0,25.3-24,25.3-24s7.5-9.6,18.7-12.8c0.6-0.2,1.1-0.2,1.6-0.2
		c3.4,0,3.8,4.2,3.1,9.2c-1.3,9.7-6.6,18.4-14.2,24.3c-5.7,4.4-13.5,10.6-22.1,18.3c-15.2,13.6-26.9,30.9-33.9,50.3
		c-14.1,38.9-42.9,109.3-69.9,120.3c-6,2.4-11.3,3.5-15.9,3.5c-24.3,0-30.2-30-25.5-48.2c4.5-17.4,55.8-73.8,76-95.5
		c8.4-9.1,14.2-20.5,15.9-32.8c0.6-4.4,0.7-9,0-13.4c0,0-19.7,35-41.1,57.5c-5.6,5.9-13.2,9.2-21,9.2c-2.8,0-5.7-0.4-8.4-1.4
		c-3.2-1.1-6.3-2.8-9-5.3c0,0-14.3,26.8-30.5,30c-3,0.6-6.1,0.9-9.4,0.9c-14.3,0-29.5-6.1-30.5-20.7c-1.2-17.9,1.2-53,6.2-68.3
		c0,0-22.5,24.2-52,96.3c-3.5,8.5-11.5,14.2-20.2,14.2c-1.5,0-3.1-0.2-4.7-0.6c-9.2-2.2-16.5-11-9-37.2c0,0-15.4,35.5-37.2,35.5
		c-4.2,0-8.7-1.3-13.4-4.6c-9.6-6.6-14.7-18.3-14-30.1l1.1-20.6c0,0-5,1.1-11.1,1.1c-8.6,0-19.6-2.2-22.5-12.6c0,0,2.5-8.9-1.9-25.5
		c0,0-41.9,32.6-45.4,106.6l-0.2,3.7c-0.4,7-2.9,13.9-7.7,19c-2.6,2.8-5.7,5-9,5c-2.6,0-5.4-1.3-8.2-4.8c-3.6-4.5-5.4-10.2-5.5-16
		l-0.5-38.2l-28.6,35.8c0,0-18.7,17.5-35.9,17.5c-1.1,0-2.2-0.1-3.3-0.2c0,0-8.7,15.3-34.2,23c-4.8,1.5-9.7,2.4-14.5,2.4
		c-20.3,0-38.5-17.3-41.5-86.1c0,0-11.6,33.4-42.4,51.7c-3.8,2.2-7.9,3.3-12,3.3c-8.5,0-16.8-4.6-20.9-12.9
		c-4.1-8.3-6.3-21.5-3.5-42.1c0,0-25.2,55.6-47.9,68.3c0,0-2.5,1-6.5,1c-7.4,0-19.8-3.2-31.1-21.4c0,0-46.1,81.1-105.8,84.3H58.1
		c-3.2,0-6.4-0.5-9.4-1.5c-12.6-4.3-39-20.6-44-82.8C-1.6,544.8,33.8,396.4,114,358.4C121.3,355,129.3,353.2,137.4,353.2
		 M137.4,349.2c-8.9,0-17.3,1.9-25.1,5.6c-19.6,9.3-37.5,25.3-53.3,47.7c-14,19.7-26,43.9-35.8,71.9C5.9,523.8-2.7,581.1,0.7,624
		c2.2,27.8,8.9,49.7,19.9,65.1c9.3,13.1,19.7,18.7,26.8,21.1c3.3,1.1,6.9,1.7,10.7,1.7h18.2h0.1l0.1,0c14.3-0.8,29-5.9,43.7-15.1
		c11.6-7.3,23.1-17.2,34.4-29.5c13.4-14.6,23-28.8,27.7-36.3c11.6,15.5,24.1,18,30.9,18c4.6,0,7.6-1.1,8-1.2l0.3-0.1l0.3-0.1
		c15.3-8.6,31.2-34.6,40.7-52.4c0.2,9.8,1.9,18,5.1,24.5c4.6,9.3,14,15.1,24.5,15.1c4.9,0,9.8-1.3,14-3.8
		c18.9-11.2,30.8-27.7,37.4-39.4c2.2,24.7,6.7,42.8,13.8,55.1c7.4,12.8,17.7,19.2,30.7,19.2c4.8,0,9.9-0.8,15.7-2.6
		c21.2-6.4,31.5-17.8,35.1-22.6c0.4,0,0.9,0,1.3,0c18.6,0,37.8-17.8,38.6-18.5l0.2-0.2l0.2-0.2l21.7-27.1l0.4,27
		c0.1,6.9,2.4,13.5,6.4,18.5c3.4,4.2,7.2,6.3,11.3,6.3c4.1,0,8.1-2.1,11.9-6.3c5.2-5.6,8.3-13.2,8.7-21.5l0.2-3.7
		c1.8-37.2,13.6-63.4,23.2-78.8c6-9.6,11.9-16.3,15.8-20.3c1.9,10.9,0.4,16.8,0.4,16.8l-0.3,1.1l0.3,1c2.8,10,12.1,15.5,26.3,15.5
		c2.6,0,4.9-0.2,6.9-0.4l-0.9,15.7c-0.7,13.5,5.3,26.4,15.8,33.6c5.1,3.5,10.3,5.3,15.6,5.3c12.6,0,23-9.9,30.1-19.5
		c0.2,4.9,1.2,9.1,3.2,12.4c2.6,4.4,6.6,7.4,12,8.7c1.8,0.4,3.7,0.7,5.6,0.7c10.2,0,19.8-6.7,23.9-16.7c16.8-41,31.3-66.5,40.6-80.6
		c-2.4,17-3.4,38.3-2.5,51.4c0.6,8.1,4.8,14.6,12.2,19c6,3.5,13.9,5.4,22.3,5.4c3.5,0,6.9-0.3,10.1-1c13.9-2.7,25.9-19.9,30.9-28
		c2,1.3,4.2,2.3,6.6,3.1c3.1,1,6.4,1.6,9.7,1.6c8.8,0,17.5-3.8,23.9-10.5c13.5-14.2,26.1-33,33.9-45.3c-1.9,10.5-6.9,20.4-14.6,28.7
		c-26.8,28.8-72.4,79.7-76.9,97.2c-3.1,12-2.2,30.4,7,42.4c5.5,7.1,13.2,10.8,22.3,10.8c5.3,0,11.2-1.3,17.4-3.8
		c12.9-5.3,26.6-22.1,41.8-51.6c12.5-24.2,23.4-52,30.3-71.1c6.8-18.8,18.2-35.7,32.8-48.7c8.8-7.9,16.8-14.2,21.9-18.1
		c8.6-6.6,14.3-16.4,15.7-26.9c0.8-5.5,0.2-9.1-1.9-11.4c-1.3-1.5-3.2-2.3-5.2-2.3c-0.8,0-1.7,0.1-2.7,0.4
		c-12.3,3.5-20.4,13.7-20.7,14.2c-7.6,9.9-16.3,19-20.5,21.7c0.1-1.4,0.4-3.7,1.4-7.4c7.3-27.6,8.6-49.1,8.8-57.1c0-1,0.1-2,0.2-3.1
		c0.1-1,0.1-2,0.2-3c0.2-5.5-2.7-9.6-8.9-12.7c-3-1.5-6.4-2.3-10-2.3c-0.3,0-0.6,0-0.9,0l-5.3,0.2c-10,0.4-15.6,9.4-18.1,15.4
		l-7.8-5c-4.8-3.1-10.3-4.6-16.2-4.6c-7.2,0-12.5,2.3-12.8,2.4l-0.5,0.2l-0.4,0.3c-15.4,12.5-28.6,28.3-39.3,46.8
		c-8.6,14.9-13.1,27.5-15.1,32.9l-0.2,0.5c-0.2,0.5-0.5,1.2-0.9,2c-0.3,0.7-0.6,1.3-0.9,2c-1.5,3.5-3.9,15-4.5,20.7
		c-0.3,2.8-1.2,5.5-2.7,7.8c-12.8,19.9-19.5,26.6-21.5,28.3l0,0l-0.5-8.9c1.6-17.9,13.1-59.9,16.6-72.4c1.6-5.6,1.2-11.3-1.1-16.1
		c-5.9-12.4-19.3-12.6-29.1-12.7c-2,0-4,0-5.6-0.2l-0.3,0l-0.3,0c-2.6,0.2-6.2,1.9-15,12.5c-4.9,5.8-10.9,13.8-18,23.8
		c-0.3,0.5-0.7,0.9-1,1.4c5.6-16,6.4-23,6.4-23.5l0.2-1.7l-1.1-1.3c-0.2-0.2-0.4-0.5-0.6-0.7c-5.1-5.9-12.2-9.2-19.9-9.2
		c-12,0-22.4,7.8-25.9,19.5c-1.5,4.9-2.8,9.9-4.1,14.7c-2.4,8.9-4.7,17.4-7.2,22.4c-0.9,1.8-1.6,3.1-2.2,4.2
		c-2.5,4.9-2.5,4.9-8.1,18.6c-1.3,3.2-2.9,7.1-4.8,11.9c-8.2,20.2-16.5,28.7-20.6,31.9c-1.7-3.5-2-8.5-2-10.7
		c10.6-43.7,21.6-73.3,21.7-73.6l0.4-1.1l-0.2-1.1l-0.1-0.3c-1.8-8.4-9.4-14.6-18.1-14.6l-10.5,0c-5.6,0-10.7,3.1-13.4,8.1
		c-5.2,9.8-10.2,27.7-13.7,41.9c-0.9-8.3-1.8-18.5-2.6-30.5c-1-14.2-11.5-25.4-24.9-26.7c-0.9-0.1-1.8-0.1-2.7-0.1c-0.5,0-1,0-1.5,0
		c-5.6,0.3-10.8,3-14.7,7.2c1.4-2.5,2.5-4.9,3.3-7.2c2.1-5.9,1.6-12.3-1.3-17.7c-2.9-5.3-7.9-9.1-13.8-10.4l-0.4-0.1
		c-1.1-0.2-2.3-0.4-3.5-0.4c-6.1,0-11.9,3.4-15.1,8.9c-7.8,13.5-12.4,29-14.4,37c-2,7.8-4.3,15.5-6.9,22.8
		c-15.3,42.7-34.1,70-47.3,85.4c-11.8,13.7-21.1,20.7-24.1,22.7l-1.6-0.1c-0.4-0.2-1-0.8-1.7-1.9c-1.4-2.2-2.2-5-2.2-8l-0.2-16.4
		c-0.1-6.8,1.1-11.8,2.3-15.2c0.8,0.4,1.4,0.6,1.6,0.7l0.6,0.2l0.6,0c0.2,0,0.4,0,0.7,0c14,0,27.4-5.9,36.7-16.2
		c3.9-4.4,7.5-9.2,10.7-14.4c9.6-15.8,14.7-34.5,14.7-54.2c0-2-0.2-3.8-0.6-5.4c-1-4-2.7-8-4.9-11c-6.8-9.5-18.1-15.1-30.3-15.1
		l-1.8,0c-8.4,0-16.6,2.8-23,7.8c-13.8,10.8-25.9,28.8-36,53.5c-7.9,19.4-12.6,38.2-14.6,47.7c-0.7,3.4-2.2,17.5-2.2,20.8l-0.1,12.4
		c-0.1,8.3,2.5,16.5,7.3,23.1c3,4.1,6,7.4,8.2,9.5c-6.8,6.2-11.3,7.6-14,7.6c-4.3,0-7.8-3.7-10.5-11c-1.7-4.8-2.6-17.8-2.6-23.7
		v-30.9c14.2-78.2,42.2-129.6,48.2-140c2.4,0.1,6.5,0.1,11.3,0.1c4.6,0,9-0.1,13.1-0.2c0.2,0,0.4,0,0.6,0c11.9,0,24.9,10.1,25,10.2
		l6.5,5.1l0-8.2v-17.2v-0.1l0-0.1c-0.6-9.3-5.1-16.4-13.2-20.6c-5.4-2.8-12.4-4.2-20.6-4.2c-1,0-2,0-2.9,0.1
		c7.5-9.7,6.5-15.1,5.7-17c-6.8-19-19.8-21.9-26.9-21.9c-4.3,0-7.3,1-7.6,1.1l-0.3,0.1l-0.3,0.1c-13,6.7-24.9,32.9-28.4,41.1
		c-56,8.4-61.8,23.5-62.4,26.5l0,0.2l0,0.2c-1.4,18,15.6,28,16.3,28.4l2.7,1.5l2.2-2.2c8.4-8.4,17.5-11.6,23-12.8
		c-21.3,86.2-63.8,149.1-69.7,155.9c-0.5,0.1-1.1,0.2-1.7,0.2c-0.4,0-0.6,0-0.8-0.1c-0.1-0.1-0.2-0.2-0.2-0.3l0.2-7.9
		c0.2-8.6,1.5-17.1,3.9-25.2c4.3-14.3,9.3-27.5,13.2-38c7.5-19.8,10.6-28.7,8-34.1c-0.8-1.5-1.1-2.5-1.3-3.1c-1-2.6-1.9-3.4-4.6-4.5
		c-1.3-0.6-3.6-1.5-7.8-3.8c-4.5-2.4-8.6-3.6-12.1-3.6c-6.2,0-9,3.6-9.8,5l-15,20.7c-9-5.4-16.8-8.2-20.7-9.3
		c-2.1-0.6-4.3-0.9-6.5-0.9c-0.4,0-0.7,0-1.1,0l-6.3,0.3l-0.3,0l-0.3,0.1c-11.8,2.6-23.4,13.8-34.7,33.2
		c-8.9,15.4-15.5,32.4-18.6,41.2c-1.6,4.3-3.6,8.5-6.2,12.3c-30.2,44.7-72.4,97.9-102,97.9c-12,0-21.1-9.2-26.8-27.4
		c-2.9-9.3-4.4-19.4-4.3-30.2l0.1-10.6c0-1.6,0-3.2-0.1-4.8c-0.1-2.6,0-6.4,0.2-11.3c0.5-8.4,1.6-17,3.5-25.5
		c14.5-66.5,31.6-114.5,50.7-142.8c15.8-23.4,28.1-25.2,31.4-25.2c0.8,0,1.3,0.1,1.5,0.1c3,0.6,4.8,4.2,5.4,5.7
		c1.4,3.6,1.7,7.8,1.8,9.1v11.4c0,19.2-2.3,38.3-6.7,56.9c-12.4,52.1-25.1,76-25.2,76.3l-1.4,2.7l2.2,2.1
		c11,10.4,21.9,15.7,32.6,15.7c11.7,0,18.6-6.5,18.9-6.8l0.8-0.8l0.3-1.1c13.7-54.7,20.1-100.6,18.9-136.3c-0.9-27.8-6.3-49-16-62.9
		c-8.8-12.6-18-14.8-21.6-15.2c-3.6-0.4-7.1-0.6-10.4-0.7C138.6,349.3,138,349.2,137.4,349.2L137.4,349.2z"/>
</g>
<path class="st2" d="M813.6,400.6c0,0-34.1,10.7-79.3-2.2c-49.1-14-118.5-21.3-130.8-12.1c-18,13.4-13.9,45,81,36.6
	c3.2-0.3,6.5,1.2,8,4.1c1.3,2.6,1.5,8.6-4.9,9.2c-11.8,1.1-50.7,5.4-86.5,0c-34.9-5.3-46.9-35.6-45.8-56c1.2-22.5,30.5-35.8,61-35.1
	c30.5,0.6,129.7,38.1,145.6,42.2c15.8,4.1,32.2,9.3,50.8,8C831.5,394,813.6,400.6,813.6,400.6z"/>
<path class="st3" d="M569.1,303.7c0,0,78.8-59.6,212.5-44.3c0,0,42.3,5.1,52.3,32.4V345c0,0-73.9-32.8-160.2-11.5
	c0,0,112,4.3,189.2,71.5l-4.1-125.2c0,0,82.4,25.7,126.2-40.2c12.6-19.1,19.1-41.9,19.1-65.1v-6.4c0-23.1-7.7-45.5-22.3-62.8
	c-18.9-22.3-51.9-39.9-106.8-13.7c0,0,0.8-80.9-108.7-87.7c0,0-59.3-3.8-107.1,51.9c0,0-26.1,29.4-111.2,54.5
	c0,0,41.9,5.5,85.5-12.3s52.9-36.4,85.6-47.6c32.7-11.2,66.9-17.8,97.2-0.3c15.1,8.7,23.2,17.8,28.2,27c7.6,13.8,8.9,30.5,4.4,45.7
	c-2.3,7.7-4.6,15.5-5.5,18.5c-1.9,6.4,17.8-35.5,62.2-38.1c14.8-0.9,27.7,1.9,38.5,6.7c22.7,10.3,37,34.1,37,59.9v0
	c0,23.7-8.1,46.8-23.4,64.4c-4,4.5-8.5,8.9-13.8,12.9c-12.3,9.2-27,14.1-42.1,14.4l0,0c-20,0.4-39.9-3.9-57.9-12.8
	c-3.6-1.8-7.2-3.8-10.7-5.9c0,0,25.8-19.2,25.2-54c0,0-17.1,34.5-51.7,44.7c0,0-17.4,1.3-27.7-1.6c0,0,35.5-28.4,20.9-95.8
	c0,0-2.5,69.3-58.5,90s-1.6,0.3-1.6,0.3l-18.1,0.6c0,0,21.5-15.6,11.2-55.2c0,0-3.1,43.1-69.1,64.2h-40.1c0,0-50.1-5.7-73.1-62.3
	c0,0-11.5,40.2,46.4,74.7c0,0-4.4,16.6-43.3,25.9l-17.2,0.2c0,0-55.6-4.7-68.1-87.7v-14.7c0,0,1.2-68.3,83.4-79.8s94-53,94-60
	c0,0-11.8,38.3-120.8,46c0,0-71,10.2-88.4,88.8V208C436.7,208,457.5,315.9,569.1,303.7z"/>
<path class="st4" d="M407.5,342.1c0,0,10.6-8.9,23-9.6l-39.8-84.9c0,0,39.2-12.1,19.9-88.1c0,0-41.5-101.7-96.3-88.1
	c0,0-43.2,17.9-10,129.4c0,0,21.6,63,74.7,52.8L407.5,342.1z"/>
<path class="st4" d="M321.7,406.5l1.3-2.8c0.9-1.9,0.9-4.2,0-6.2c-5.4-10.9-23.5-48-31.6-68.5c-2.5-6.4-1.9-13.7,1.6-19.6
	c2-3.2,4.2-7,6.4-10.6c4.4-7.1,6-15.6,4.4-23.9c-0.3-1.5-0.6-3-0.9-4.5c-1.7-7.5-55-135.6-65-159.6c-1.4-3.3-5-5.1-8.2-3.9
	c-1.4,0.5-2.7,1.6-3.4,3.4c-0.6,1.5-0.5,3.3,0.1,4.8l54,138c0,0,2.1,13.4-7,6.2c-1.2-0.9-2.4-2.4-3-3.8l-52.2-137.4
	c-0.6-1.7-2.3-3.5-3.8-4.2c-2.6-1.1-6.9-0.4-6.9,7.1c0,0.8,0.2,1.6,0.5,2.4l52.8,136.9c0.2,0.5,0.4,1.1,0.4,1.7
	c0.3,3,0.9,11.8-6.1,4.2c-0.6-0.6-1-1.3-1.3-2.1l-54-137.6c-0.7-1.7-1.9-3-3.5-3.7c-3.6-1.6-9.6-2.9-8.7,7.4c0.1,0.7,0.2,1.3,0.5,2
	l54.4,138.3c0,0,1.1,9.5-5.4,4.5c-0.9-0.7-1.6-1.7-2.1-2.9l-54.2-137.4c-0.5-1.1-1.2-2.1-2.1-2.9c-3.1-2.5-9.9-6.3-10.8,6.3
	c-0.1,1,0.1,1.9,0.4,2.8l50.5,137.6c0,0.1,0.1,0.2,0.1,0.4c0.6,2.1,6.9,22,19.2,31.1c11.9,8.7,25.3,12.6,27.6,13.3
	c0.3,0.1,0.6,0.2,0.8,0.3c1.7,0.8,7.7,3.6,8.2,7.5l21.8,66.9c0.6,1.9,2,3.4,3.8,4.2c2.7,1.2,7.1,3.3,10.8,6.5
	C314.7,411.6,319.8,410.5,321.7,406.5z"/>
<path class="st5" d="M195.4,369.5c0,0,2.7-13.8,26.8-46.8c0,0-4.6-2.8-6.8-10.4c0,0-23.4,32.1-28.6,46
	C186.7,358.2,190.2,356.7,195.4,369.5z"/>
<path class="st5" d="M180.3,349.1c0,0,13.1-27.1,30.8-46.9c0,0-5.3-7.3-8.4-22.3c0,0-19.3,21.7-38.3,58.4
	C164.4,338.2,173.8,339.9,180.3,349.1z"/>
<path class="st6" d="M225.2,598.8c5.4-6.3,20-25.6,42.5-72.5c0,0-2.5-13.7-7.5-12.1c-5,1.6-26.5,19.5-40.5,87.2l0,0
	C221.9,601.3,223.9,600.4,225.2,598.8z"/>
<path class="st2" d="M219.8,476.5c0,0,27.7-19.8,69.4-19.5c0,0,17.7-1.9,19.3-15.6c1.6-13.7-2-16.9-16.7-22.7
	c0,0-39.9-2.6-80.7,48.5C211.1,467.2,203.9,481.7,219.8,476.5z"/>
<path class="st6" d="M455.4,540.3c3-1.8,15.9-11.2,22.6-40.3c0.7-3.1,1.1-6.2,1.1-9.3v-2.4c0-1.4-1.1-2.5-2.5-2.5l0,0
	c-0.8,0-1.5,0.4-2,1c-3.3,4.7-16.4,24.4-23.6,49.5c-0.6,2.2,0.9,4.4,3.2,4.4l0,0C454.6,540.7,455,540.5,455.4,540.3z"/>
<path class="st6" d="M864.8,519.6c0,0,28.6-34.3,42.2-66.6c1.8-4.3,2.7-8.9,2.7-13.6v0c0-2.6-3.2-4-4.9-2.1c0,0-0.1,0.1-0.1,0.1
	c-2.7,3.2-21.2,19.2-45.2,75.3C859.4,512.8,857.1,522.1,864.8,519.6z"/>
<path class="st7" d="M880.1,586c0,0-14.1,43.8-31.5,63.9H848c-2.2,0-4-1.8-3.9-4.1c0-1.1,0.3-2.3,1-3.6c2.3-4,7.3-25.5,33-57.3
	L880.1,586z"/>
<path class="st2" d="M956.9,619.1c0.6,0,1.3,0.1,2.1,0.2c10.4,1.8,9.3,17.6-1.2,17.9c-0.2,0-0.4,0-0.6,0c-0.8,0-1.5,0-2.2-0.1
	c-10.1-1.3-10.3-16.1-0.3-17.9c0.1,0,0.2,0,0.3-0.1C955.7,619,956.3,619,956.9,619.1z"/>
<path class="st2" d="M922.2,634.1c0,0,22.4-9.4,0-18.7c-22.4-9.4-840.3-30.7-845.3,120c0,0,0.8,13.6,16.6,13.6
	C93.5,749,318.3,616.8,922.2,634.1z"/>
<path class="st8" d="M179.8,730.3c0,0,98.5,175.4,321.9,173.7s311.4-182.2,328-209.4l-17-11.7c0,0-89.1,200.7-311,200.7
	s-304-162.2-304-162.2L179.8,730.3z"/>
<path class="st8" d="M209.5,723.9c0,0,103.3,155.8,292.3,152s285.1-153.7,299.8-193.1l-10-4c0,0-76.7,180.4-289.8,185.5
	c0,0-155.5,16.6-279.5-141.8L209.5,723.9z"/>
<polygon class="st9" points="509.3,706 515.6,686.9 525.1,704.3 542.5,706 530.1,718 535.9,735.8 519.3,728.2 504.6,738.4 
	507.3,721.8 491.5,709.9 "/>
<polygon class="st9" points="594.8,682.8 601.1,666.4 608.1,682.8 622.6,682.8 612.3,692 618.9,708 604,700.1 591.1,710.3 
	594.4,695.8 579.5,684.8 "/>
<polygon class="st9" points="421,694.8 426.3,679 434.2,692.7 450,694.8 438.8,704.6 444.6,721.2 430.5,711.8 416.8,723.3 
	420.5,706.9 406.8,698.2 "/>
<path class="st10" d="M325.4,708.1c0,0,2.1-4.5,51.5,26.4c0,0-48,4.2-75.9,35.6c0,0-17.1,18.4,11.7,25.2c0,0,14.9-40.2,79.8-56.1
	c0,0,3.6-2.7-0.5-7.3C392,731.9,325.6,671.8,325.4,708.1z"/>
<path class="st10" d="M496,841.7c0,0-0.3,2.3-33.1,0.5c0,0-19-1.6-31,1.4c0,0-0.9-5.2,44-23.5s35-42.7,35-42.7s-1.8-19.1-31.5-21.6
	c-29.7-2.5-38.6,10.8-38.6,10.8s-15.7,17.3,6,23.5c0,0,6.6,0.7,9.8-2.6c0,0-10.8-18.6,13.9-24.8c0,0,17-1.1,18.7,12.5
	c0,0,2.6,16.2-22.6,33.1c0,0-28.1,17.4-36.2,23.9s-10.2,10.9-10.6,15.2c-0.4,4.2,4.1,6.7,6,7.2c0,0,7.7-2.4,13.5-1.6
	c5.8,0.8,32.7,5.8,41.5,5.3c8.8-0.6,12.1-1.9,14.2-4.5C495.1,853.9,501.7,847.4,496,841.7z"/>
<path class="st10" d="M618.4,790.2c0,0-6.4,11.8-24.2,18.4c0,0-20.5,8.5-30.7-11.1c-10.2-19.7,6.2-39.5,6.2-39.5s7.7-10.2,21.5-16.2
	c13.9-6,23.2-2.5,23.2-2.5s15.7,1.7,22.7,24.8s7.6,36.8-0.3,55.2c-7.8,18.3-21.2,23.6-21.2,23.6s-19.8,13-32.9,2.8
	c0,0-10.3-10.9,1.4-21.7c0,0,7.7-4.7,13-2.7c0,0-3.1,19.3,10.4,17.7C621,837.1,622.9,810.9,618.4,790.2z"/>
<path class="st11" d="M616,776.7c0,0,1.1,5.3-9,15.3c0,0-12.3,9.5-21-2.2c0,0-13.3-24,3.1-38.4c0,0,15.4-10.6,22.3,10.6
	C618.5,783.3,616,776.7,616,776.7z"/>
<path class="st10" d="M761.9,707.5c0,0,1.5,1.8-21.2,26.6c0,0-13.6,14-19.2,25.5c0,0-4.4-2.7,11.6-50.2c16-47.5-8.1-55.6-8.1-55.6
	s-15.1-11-36.2,10.9c-21.1,21.9-17.3,37.6-17.3,37.6s2.3,23.8,21,10.6c0,0,4.8-4.7,4.5-9.5c0,0-20.5-3.5-9-27.2
	c0,0,10.4-14.2,21.2-6.7c0,0,13.4,8.6,9.3,39.5c0,0-5.7,33.6-6.2,44.2c-0.5,10.7,1.3,15.2,4.1,18.3c2.8,3.1,7.5,1.2,9.1-0.1
	c0,0,3.3-7.6,7.7-11.7c4.4-4.1,25.6-22.1,30.9-29.4c5.3-7.3,6.5-10.9,6-14.2C770.1,716.2,769.8,706.7,761.9,707.5z"/>
</svg>
