<?xml version="1.0" encoding="utf-8"?>
<!-- Generator: Adobe Illustrator 22.1.0, SVG Export Plug-In . SVG Version: 6.00 Build 0)  -->
<svg version="1.1" id="Слой_1" xmlns="http://www.w3.org/2000/svg" xmlns:xlink="http://www.w3.org/1999/xlink" x="0px" y="0px"
	 viewBox="0 0 1080 1080" style="enable-background:new 0 0 1080 1080;" xml:space="preserve">
<style type="text/css">
	.st0{fill:#F162B1;}
	.st1{fill:#FFFFFF;}
	.st2{fill:#F162B1;stroke:#FFFFFF;stroke-width:4;stroke-miterlimit:10;}
	.st3{fill:none;stroke:#FFFFFF;stroke-width:6;stroke-miterlimit:10;}
	.st4{fill:none;stroke:#FFFFFF;stroke-width:4;stroke-miterlimit:10;}
	.st5{fill:#FFFFFF;stroke:#FFFFFF;stroke-width:3;stroke-miterlimit:10;}
	.st6{stroke:#FFFFFF;stroke-width:5;stroke-miterlimit:10;}
	.st7{stroke:#FFFFFF;stroke-width:4;stroke-miterlimit:10;}
	.st8{fill:#FFFFFF;stroke:#FFFFFF;stroke-miterlimit:10;}
	.st9{fill:#FFFFFF;stroke:#FFFFFF;stroke-width:4;stroke-miterlimit:10;}
</style>
<g>
	<path class="st0" d="M132.5,751.6c-3.2,0-6.3-0.5-9.2-1.4c-6.3-2-15.4-6.8-23.7-17.9C89.7,719,83.7,700.1,81.7,676
		c-3.1-37.3,4.7-87.2,20.4-130.2c19-51.9,47.6-88.7,80.6-103.7c6.9-3.1,14.4-4.7,22.2-4.7c0.5,0,1.1,0,1.6,0c3,0.1,6.1,0.3,9.3,0.6
		c2.5,0.3,11.2,2,19.2,13.5c8.5,12.2,13.1,30.6,13.8,54.6c0.9,30.9-4.9,70.4-17.3,117.5l-0.1,0.6l-0.4,0.4
		c-0.2,0.2-6.1,5.5-16.1,5.5c-9.3,0-18.9-4.5-28.6-13.3l-1.2-1.1l0.8-1.4c0.1-0.2,11.7-21.2,23.2-67c4.1-16.4,6.2-33.2,6.2-50.1v-10
		c-0.1-1.4-0.3-5.1-1.7-8.4c-0.8-1.9-2.7-5.2-6.1-5.9c-0.3-0.1-0.9-0.1-1.7-0.1c-7.2,0-44.5,7.1-76.7,148c-1.7,7.5-2.8,15-3.2,22.5
		c-0.3,4.4-0.3,7.7-0.2,10c0.1,1.4,0.1,2.7,0,4.1l-0.1,9.3c-0.1,9.6,1.3,18.6,4,26.8c3.8,11.4,11.4,25,26.1,25
		c22.3,0,54.2-29,94.7-86.3c2.4-3.4,4.4-7.1,5.8-11c6.6-17.6,24.3-59,47.5-64l0.2,0l5.9-0.3c0.3,0,0.6,0,0.9,0
		c1.9,0,3.7,0.3,5.4,0.8c3.6,1,10.8,3.5,19.1,8.4l1.1-0.2l14.2-18.8c0.8-1.4,3.2-3.7,7.5-3.7c2.9,0,6.4,1,10.2,3
		c3.9,2,6,2.8,7.3,3.4c2,0.8,2.6,1.2,3.3,3c0.2,0.6,0.6,1.5,1.3,2.9c2.1,4.2-0.9,12.3-7.4,28.7c-3.6,9.2-8.2,20.7-12.1,33.3
		c-2.3,7.2-3.5,14.7-3.6,22.4l-0.1,7.3c0.1,0.3,0.4,0.7,0.9,1.2c0.1,0,0.6,0.3,1.7,0.3c0.9,0,1.8-0.1,2.5-0.4c4-4,45.2-61,65-139.5
		c-4.7,0.6-15.1,3-24.4,12.1l-1.1,1l-1.3-0.7c-0.6-0.3-15.3-8.6-14.1-23.4l0-0.1l0-0.1c0.3-1.5,4.6-14.8,56.6-22.1
		c2.4-5.5,13.7-30.2,25.5-36l0.1-0.1l0.1,0c0.1,0,2.7-0.9,6.4-0.9c6.1,0,17.2,2.4,23.1,18.2c0.6,1.3,1.9,6.3-7.2,16.1
		c1.6-0.2,3.8-0.3,6.2-0.3c18,0,28.4,7.2,29.2,20.2l0,0.1V512l-3.2-2.4c-0.1-0.1-12.4-9.3-23.9-9.3c-0.2,0-0.4,0-0.6,0
		c-3.7,0.1-7.7,0.2-11.9,0.2c-5.2,0-9.4-0.1-11.3-0.1c-10.9,17.1-33.3,63.5-44.8,123.8v27.2c0,4.9,0.7,16.6,2.5,21.2
		c2.7,7.1,6.4,10.7,11.1,10.7c4.2,0,9.3-2.7,15.1-8.1c-2-1.7-5.3-4.9-8.5-9.2c-4.1-5.5-6.4-12.4-6.4-19.4l0.1-10.8
		c0-2.9,1.3-15,2-17.9c4.4-19.4,17.7-66.7,45.7-87.6c5.5-4.2,12.6-6.4,19.9-6.4h1.6c10.6,0,20.4,4.7,26.3,12.6
		c1.8,2.4,3.4,5.8,4.2,9.1c0.3,1.3,0.5,2.8,0.5,4.4c0,17-4.6,33.1-13.2,46.7c-2.9,4.5-6.1,8.6-9.6,12.4
		c-8.2,8.6-19.9,13.6-32.3,13.6l-0.9,0l-0.3-0.1c-0.2-0.1-1.6-0.5-2.8-1.5c-1.3,2.8-3.1,8.1-2.9,15.6l0.2,14.4
		c0,2.9,0.8,5.6,2.3,7.7c0.9,1.3,1.7,2.1,2.6,2.4l2.4,0.1c4.6-2.9,41.1-27.8,66.4-95.6c2.4-6.4,4.5-13.2,6.4-20.1
		c1.8-6.9,6-20.3,13-32c2.6-4.3,7.3-7,12.3-7c0.9,0,1.9,0.1,2.8,0.3l0.3,0.1c5,1.1,9.3,4.2,11.7,8.6c2.3,4.3,2.7,9.4,0.9,14
		c-1.1,3-2.9,6.2-5.1,9.6c-3.1,7.9-6.2,16.4-8,22.3c2.2-3.5,5.2-9.2,9.1-18.2c2.8-6.7,9.2-11.3,16.1-11.6c0.4,0,0.8,0,1.3,0
		c0.7,0,1.5,0,2.3,0.1c11.5,1.1,20.4,10.3,21.3,22c1.2,15.3,2.4,27.5,3.6,35.6c2.9-12.6,8.6-34.4,14.5-45.1
		c2.1-3.8,6.3-6.2,10.7-6.2h9.6c7.1,0,13.4,4.8,14.9,11.5l0.2,0.9l-0.2,0.6c-0.1,0.3-10.3,26.3-20,64.7c-0.1,2.4,0.4,8.4,3,11.8
		c3.1-1.9,12.1-8.9,20.9-29.6c1.8-4.2,3.2-7.6,4.4-10.4c5.1-12,5.1-12,7.3-16.2c0.5-0.9,1.1-2.1,2-3.7c2.4-4.5,4.5-12,6.7-19.9
		c1.2-4.2,2.4-8.5,3.7-12.8c3-9.6,11.9-16,22.1-16c6.5,0,12.5,2.7,16.9,7.5c0.2,0.2,1.1,1.2,1.1,1.2l-0.1,0.9
		c-0.1,0.5-1.1,9.8-10.4,32c2.6-3.7,5.5-7.7,8.5-11.7c22.6-30.5,27.1-30.9,29-31l0.2,0l0.2,0c1.6,0.1,3.4,0.1,5.2,0.1
		c8.5,0.1,20.2,0.2,25.1,10.2c1.9,3.9,2.2,8.5,0.9,13.1c-3.2,11-13.7,48-15.2,63.7l0.5,8.5l0.4,1l1.9-0.3c1.4-1.1,7.6-6.6,20.3-25.4
		c1.4-2.1,2.4-4.7,2.7-7.4c0.6-5.3,2.8-15,4-17.7c0.2-0.6,0.5-1.1,0.8-1.7c0.4-0.7,0.7-1.4,0.9-1.9l0.2-0.5
		c10.9-28.9,27.5-52.2,49.3-69.1l0.2-0.2l0.2-0.1c0.2-0.1,4.8-2,11-2c5.1,0,9.8,1.3,13.9,3.8l8.9,5.4c1.8-4.6,6.5-13.9,15.8-14.3
		l4.8-0.2c0.3,0,0.5,0,0.8,0c3,0,5.8,0.6,8.3,1.8c5,2.4,7.4,5.6,7.2,9.7c0,0.9-0.1,1.7-0.2,2.6c-0.1,1-0.1,1.9-0.2,2.8
		c-0.2,6.9-1.3,25.6-8,49.6c-1.9,6.8-1.3,8.7-1.1,9.1c3.4-0.2,13.7-10.6,21.6-20.3c0.3-0.4,7.4-8.9,18.1-11.8c0.7-0.2,1.3-0.3,2-0.3
		c1.5,0,2.7,0.5,3.6,1.6c1.5,1.7,1.9,4.5,1.3,8.8c-1.3,8.8-6.3,17-13.8,22.5c-4.7,3.4-11.9,9-20.1,15.9
		c-13.6,11.6-24.1,26.5-30.4,43.2c-13.5,35.5-39.8,96.6-65.1,106.4c-5.5,2.1-10.6,3.2-15.3,3.2c-8,0-14.8-3.3-19.5-9.4
		c-7.7-10.1-8.4-25.4-5.7-35.3c4.2-15.6,50.3-64.2,69.9-84.4c7.7-7.9,12.6-17.5,14-27.6c0.3-1.8,0.4-3.5,0.4-5.1
		c-6.1,9.7-20,30.6-34.6,45.3c-5.5,5.5-13,8.7-20.6,8.7c-2.8,0-5.6-0.4-8.3-1.3c-2.7-0.9-5-2-7.1-3.5c-3.7,5.9-15,22.7-28,25.2
		c-2.9,0.5-5.9,0.8-8.9,0.8c-7.4,0-14.3-1.6-19.5-4.5c-6.3-3.5-9.9-8.9-10.4-15.4c-1-13.3,0.4-36.2,3.5-51.5
		c-7.9,10.6-23.3,34.1-41.5,76.7c-3.5,8.2-11.6,13.6-20.3,13.6c-1.6,0-3.2-0.2-4.7-0.5c-4.5-1.1-7.9-3.5-10.1-7.1
		c-2.2-3.8-3-8.9-2.3-15.2c-6.2,9.3-16.5,20.9-29.4,20.9c-4.5,0-9-1.4-13.3-4.3c-9.1-6-14.4-16.8-13.7-28.1l0.9-15.5
		c-1.9,0.3-4.8,0.6-8,0.6c-12.3,0-20.1-4.3-22.5-12.5l-0.2-0.6l0.2-0.6c0-0.1,1.7-6.5-0.9-18.2c-8.3,7.5-35.7,36.1-38.4,89.8
		l-0.2,3.3c-0.4,6.9-3.1,13.2-7.6,17.9c-3.2,3.3-6.4,5-9.7,5c-3.2,0-6.3-1.7-9-4.9c-3.5-4.1-5.4-9.5-5.5-15.2l-0.4-28l-22.8,27.3
		l-0.1,0.1c-0.7,0.6-17.8,15.8-34.2,15.8c-0.7,0-1.4,0-2-0.1c-2.5,3.5-11.5,14.1-31.7,19.9c-5.1,1.5-9.6,2.2-13.8,2.2
		c-23.2,0-36.1-22.6-39.5-69c-5.1,9.9-16.3,27.5-36.3,38.8c-3.6,2.1-7.7,3.1-11.9,3.1c-8.9,0-16.9-4.7-20.8-12.4
		c-3.5-6.8-5-16-4.4-27.4c-7.9,14.9-24.3,42.8-39.8,51.1l-0.1,0.1l-0.1,0c-0.1,0-2.7,1-6.7,1c-6.2,0-17.8-2.3-28.4-17.1
		c-3.6,5.7-13.1,19.6-26.5,33.5c-16.1,16.8-41.3,37-70.2,38.5l-0.1,0H132.5z"/>
	<path class="st1" d="M204.9,439.4c0.5,0,1,0,1.6,0c2.7,0.1,5.7,0.3,9.2,0.6c14.4,1.5,53.7,31.3,13.9,183.1c0,0-5.4,4.9-14.7,4.9
		c-7.1,0-16.4-2.8-27.3-12.8c0,0,11.7-20.8,23.4-67.5c4.1-16.6,6.2-33.6,6.2-50.6v-10c-0.1-2.2-0.5-5.9-1.9-9.2
		c-1.3-3.1-3.8-6.3-7.6-7.1c-0.5-0.1-1.2-0.2-2.1-0.2c-11,0-47.4,12.9-78.7,149.6c-1.7,7.5-2.8,15.2-3.3,22.8
		c-0.2,3.7-0.3,7.5-0.2,10.2c0.1,1.3,0.1,2.7,0,4l-0.1,9.3c-0.1,9.3,1.2,18.6,4.1,27.5c4.2,12.6,12.3,26.4,28,26.4
		c19,0,49-20.2,96.3-87.2c2.5-3.6,4.6-7.4,6.1-11.5c5.8-15.6,23.5-57.9,46.1-62.8l5.8-0.3c0.3,0,0.5,0,0.8,0c1.7,0,3.3,0.2,4.9,0.7
		c3.9,1.1,11,3.6,19.3,8.5l2.7-0.4l14.8-19.6c0,0,1.3-2.7,5.8-2.7c2.2,0,5.3,0.7,9.3,2.7c12.1,6.2,7.6,1.7,11,8.4
		c3,6-9.8,29.3-19.6,60.5c-2.3,7.4-3.6,15.2-3.7,22.9l-0.2,7.7c0,0,0.4,1.1,1.5,2.2c0.6,0.6,1.8,0.8,3.1,0.8c1.2,0,2.6-0.2,3.5-0.6
		c2-0.8,46.4-60.6,66.6-143.5c0,0-15.1,0-28.4,12.8c0,0-14.2-7.8-13.1-21.5c0,0,2.8-13.4,56-20.7c0,0,12.5-29.9,25-36
		c0,0,2.4-0.8,5.8-0.8c6.2,0,15.9,2.6,21.2,17c0,0,2.6,4.5-8.5,15.7l0.2,2c0,0,3.9-0.7,9.2-0.7c10.5,0,26.2,2.6,27.2,18.4V508
		c0,0-12.8-9.7-25.1-9.7c-0.2,0-0.5,0-0.7,0c-4.2,0.1-8.3,0.2-11.9,0.2c-7.2,0-12.4-0.2-12.4-0.2s-30.9,47.5-45.7,125.6v27.4
		c0,5.2,0.8,17,2.6,21.9c2.2,5.9,6.2,12,13,12c4.6,0,10.5-2.8,18.1-10.2c0,0-5.1-3.8-9.9-10.3c-3.9-5.2-6-11.6-6-18.1l0.1-10.8
		c0-2.8,1.3-14.8,1.9-17.5c3.6-15.6,16.6-65.2,44.9-86.5c5.4-4,12-6,18.7-6l1.6,0c9.6,0,19,4.2,24.7,11.8c1.8,2.4,3.2,5.6,3.9,8.4
		c0.3,1.3,0.4,2.6,0.4,3.9c0,16.1-4.2,32-12.9,45.6c-2.6,4.1-5.7,8.2-9.4,12.1c-7.9,8.4-19.2,13-30.8,13c-0.2,0-0.4,0-0.6,0h0
		c0,0-3-0.9-3.6-3.4c0,0-4.9,6.5-4.7,19.4l0.2,14.3c0,3.1,0.9,6.2,2.6,8.8c1,1.5,2.3,2.8,3.9,3.3l3.2,0.2c0,0,40.2-23.2,67.7-96.9
		c2.5-6.6,4.6-13.4,6.4-20.2c1.9-7.2,5.9-20.1,12.8-31.5c2.3-3.7,6.3-6.1,10.6-6.1c0.8,0,1.6,0.1,2.4,0.2c0.1,0,0.2,0,0.3,0.1
		c9.2,2,14.4,11.2,11.2,19.9c-1,2.7-2.6,5.8-5,9.4c0,0-10.7,27.4-9.9,30.7c0,0,4.8-2,14.6-25c2.5-5.8,8-10.1,14.4-10.4
		c0.4,0,0.8,0,1.1,0c0.7,0,1.4,0,2.1,0.1c10.6,1,18.7,9.7,19.5,20.1c1.1,14.4,3.1,37.5,5.4,45.3c0,0,8-38.9,16.4-54
		c1.8-3.2,5.3-5.2,9-5.2l9.6,0c6.1,0,11.6,4.1,13,10c0,0.1,0,0.2,0.1,0.3c0,0-10.2,26.1-20.1,65.1c0,0-0.4,10.1,4.6,14.5
		c0,0,11.8-4.5,23.1-31.3c11.4-26.8,8.3-20.1,13.7-30.2c3.8-7.1,6.6-20.3,10.6-33c2.9-9.3,11.5-14.6,20.2-14.6
		c5.6,0,11.2,2.2,15.4,6.8c0.2,0.2,0.3,0.4,0.5,0.6c0,0-1.5,14.5-19.3,51.4c0,0,39.8-59.2,48.5-59.9c9,0.6,23.3-1.7,28.7,9.2
		c1.8,3.6,1.9,7.8,0.8,11.6c-3.6,12.2-13.9,48.5-15.3,64.2l0.6,8.9l1.1,2.8l4-0.6c0,0,6.1-3.8,21.2-26.2c1.7-2.5,2.7-5.3,3-8.3
		c0.6-5.1,2.8-14.7,3.9-17.1c0.6-1.3,1.3-2.7,1.7-3.7c3.3-8.8,15.9-43.1,48.8-68.7c0,0,4.4-1.8,10.2-1.8c3.9,0,8.5,0.8,12.9,3.5
		c11,6.7,11,6.7,11,6.7s4-14.9,14.8-15.3l4.8-0.2c0.2,0,0.5,0,0.7,0c2.6,0,5.2,0.5,7.5,1.6c4.6,2.2,6.2,4.7,6.1,7.9
		c-0.1,1.8-0.3,3.6-0.3,5.4c-0.2,7.2-1.4,25.5-7.9,49.1c-2.4,8.5-1.6,11.6,0.8,11.6c6.2,0,23.1-21,23.1-21s6.8-8.4,17.1-11.2
		c0.5-0.1,1-0.2,1.4-0.2c3.1,0,3.5,3.7,2.9,8.1c-1.2,8.5-6,16.1-13,21.2c-5.2,3.8-12.3,9.3-20.2,16c-13.9,11.9-24.5,27-31,44
		c-12.9,34-39.2,95.6-63.9,105.2c-5.5,2.1-10.3,3.1-14.5,3.1c-22.2,0-27.6-26.2-23.3-42.2c4.1-15.2,51-64.5,69.4-83.5
		c7.7-7.9,13-17.9,14.6-28.7c0.6-3.8,0.7-7.8,0-11.7c0,0-18,30.6-37.6,50.3c-5.1,5.1-12.1,8.1-19.2,8.1c-2.6,0-5.2-0.4-7.7-1.2
		c-2.9-0.9-5.8-2.4-8.2-4.6c0,0-13.1,23.5-27.9,26.2c-2.7,0.5-5.6,0.8-8.6,0.8c-13.1,0-26.9-5.3-27.9-18.1
		c-1.1-15.6,1.1-46.3,5.7-59.7c0,0-20.6,21.2-47.5,84.3c-3.2,7.4-10.6,12.4-18.5,12.4c-1.4,0-2.8-0.2-4.3-0.5
		c-8.4-2-15.1-9.6-8.2-32.5c0,0-14.1,31.1-34,31.1c-3.9,0-8-1.2-12.2-4c-8.8-5.8-13.4-16-12.8-26.3l1-18.1c0,0-4.5,1-10.2,1
		c-7.9,0-17.9-1.9-20.5-11c0,0,2.3-7.8-1.7-22.3c0,0-38.3,28.5-41.5,93.2l-0.2,3.3c-0.3,6.2-2.7,12.1-7,16.6
		c-2.3,2.4-5.2,4.4-8.2,4.4c-2.4,0-4.9-1.2-7.5-4.2c-3.3-3.9-4.9-8.9-5-14l-0.5-33.4L514.3,672c0,0-17.1,15.3-32.8,15.3
		c-1,0-2-0.1-3-0.2c0,0-8,13.4-31.3,20.1c-4.4,1.3-8.9,2.1-13.3,2.1c-18.6,0-35.2-15.1-37.9-75.2c0,0-10.6,29.2-38.8,45.3
		c-3.4,1.9-7.2,2.9-10.9,2.9c-7.8,0-15.3-4-19.1-11.3c-3.8-7.3-5.7-18.8-3.2-36.8c0,0-23,48.6-43.8,59.7c0,0-2.3,0.8-6,0.8
		c-6.7,0-18.1-2.8-28.4-18.7c0,0-42.1,70.9-96.7,73.7h-16.6c-2.9,0-5.8-0.4-8.6-1.3c-11.5-3.7-35.6-18-40.2-72.4
		c-5.8-68.9,26.6-198.7,99.9-231.9C190.2,440.9,197.5,439.4,204.9,439.4 M204.9,435.4c-8.1,0-15.9,1.6-23,4.9
		c-17.9,8.1-34.4,22.2-48.9,41.8c-12.8,17.3-23.8,38.5-32.8,63c-15.8,43.3-23.7,93.5-20.5,131.1c2.1,24.4,8.2,43.7,18.3,57.3
		c8.6,11.6,18.2,16.5,24.7,18.6c3.1,1,6.4,1.5,9.8,1.5h16.6h0.1l0.1,0c13.1-0.7,26.6-5.1,40-13.3c10.6-6.4,21.2-15.1,31.5-25.9
		c12-12.5,20.8-24.8,25.2-31.4c10.7,13.4,22,15.6,28.2,15.6c4.3,0,7-1,7.3-1.1l0.3-0.1l0.3-0.1c13.8-7.4,28-29.4,36.8-45
		c0.3,8.1,1.9,15,4.7,20.4c4.3,8.3,13,13.5,22.6,13.5c4.5,0,9-1.2,12.9-3.4c16.9-9.6,27.7-23.5,33.8-33.8c2,21.1,6.2,36.7,12.6,47.3
		c6.8,11.3,16.3,17,28.3,17c4.4,0,9.1-0.7,14.4-2.3c19.2-5.5,28.7-15.4,32.1-19.8c0.4,0,0.7,0,1.1,0c17.1,0,34.7-15.6,35.5-16.3
		l0.2-0.2l0.2-0.2l19.3-23l0.3,22.6c0.1,6.2,2.2,12.1,6,16.5c3.2,3.7,6.7,5.6,10.6,5.6c3.8,0,7.5-1.9,11.1-5.6
		c4.8-5,7.7-11.8,8.1-19.2l0.2-3.3c1.6-32.4,12.4-55.2,21.1-68.6c5.3-8.1,10.4-13.8,14-17.3c1.5,8.9,0.3,13.7,0.3,13.7l-0.3,1.1
		l0.3,1.1c2.6,9,11.3,13.9,24.4,13.9c2.2,0,4.2-0.1,5.9-0.3l-0.7,13.2c-0.7,12,4.9,23.5,14.6,29.9c4.7,3.1,9.5,4.6,14.4,4.6
		c11.3,0,20.7-8.3,27.2-16.6c0.3,3.8,1.2,7.1,2.8,9.9c2.4,4.1,6.3,6.9,11.3,8.1c1.7,0.4,3.4,0.6,5.2,0.6c9.4,0,18.3-6,22.1-14.8
		c14.8-34.7,27.8-56.6,36.3-69.2c-2.1,14.6-2.9,32.3-2.1,43.4c0.5,7.3,4.5,13.1,11.4,17c5.5,3.1,12.7,4.8,20.5,4.8
		c3.2,0,6.3-0.3,9.3-0.8c12.6-2.4,23.6-17.2,28.3-24.4c1.8,1.1,3.7,2,5.9,2.6c2.9,0.9,5.9,1.4,8.9,1.4c8.1,0,16.2-3.4,22-9.3
		c11.8-11.9,22.9-27.4,30.1-38.2c-1.9,8.3-6.3,16.2-12.8,22.8c-24.5,25.2-66.3,69.8-70.4,85.2c-2.8,10.4-2.1,26.4,6.1,37
		c5.1,6.7,12.4,10.2,21.1,10.2c4.9,0,10.3-1.1,16-3.4c11.9-4.6,24.5-19.4,38.4-45.3c11.5-21.2,21.4-45.6,27.7-62.3
		c6.2-16.4,16.5-31,29.8-42.4c8.1-6.9,15.3-12.4,20-15.8c7.9-5.8,13.2-14.6,14.6-23.9c0.7-4.9,0.2-8.2-1.7-10.4
		c-1.3-1.5-3.1-2.3-5.1-2.3c-0.8,0-1.6,0.1-2.5,0.4c-11.3,3.1-18.8,12.1-19.1,12.5c-6.6,8.2-14.1,15.8-18.1,18.5
		c0.1-1.2,0.5-3,1.2-5.5c6.7-24.2,7.9-43.1,8.1-50.1c0-0.9,0.1-1.8,0.2-2.7c0.1-0.9,0.1-1.7,0.2-2.6c0.2-5-2.6-8.9-8.3-11.6
		c-2.8-1.3-5.9-2-9.2-2c-0.3,0-0.6,0-0.8,0l-4.8,0.2c-9.1,0.3-14.2,8-16.7,13.3l-6.9-4.2c-4.4-2.7-9.5-4.1-15-4.1
		c-6.6,0-11.5,2-11.7,2.1l-0.5,0.2l-0.4,0.3c-22,17.1-38.8,40.7-49.9,70l-0.2,0.5c-0.2,0.4-0.5,1.1-0.8,1.7
		c-0.3,0.6-0.6,1.2-0.9,1.8c-1.4,3.1-3.6,13.2-4.2,18.3c-0.3,2.4-1.1,4.6-2.4,6.5c-10.8,16.1-16.9,22.3-19.1,24.3l-0.4-7
		c1.5-15.6,11.9-52.2,15.1-63.2c1.5-5,1.1-10.2-1-14.5c-5.5-11.1-17.9-11.2-26.9-11.3c-1.9,0-3.6,0-5.1-0.1l-0.3,0l-0.3,0
		c-2.4,0.2-5.7,1.7-13.9,11c-4.3,4.9-9.7,11.7-16,20.1c4.3-12.3,5-17.8,5-18.2l0.2-1.7l-1.2-1.3c-0.2-0.2-0.4-0.4-0.5-0.6
		c-4.8-5.3-11.3-8.2-18.4-8.2c-11.1,0-20.7,7-24,17.4c-1.4,4.3-2.6,8.7-3.8,12.9c-2.2,7.8-4.2,15.1-6.5,19.5c-0.8,1.6-1.5,2.7-2,3.7
		c-2.3,4.3-2.4,4.5-7.4,16.4c-1.2,2.8-2.6,6.2-4.4,10.4c-7.3,17.2-14.7,24.6-18.4,27.5c-1.2-2.7-1.6-6.5-1.6-8.6
		c9.6-38.1,19.7-64,19.8-64.2l0.4-1.1L696,549l-0.1-0.3c-1.7-7.6-8.8-13.1-16.9-13.1l-9.6,0c-5.2,0-10,2.8-12.5,7.3
		c-4.6,8.2-9,22.9-12.1,35c-0.7-6.9-1.5-15.2-2.2-24.8c-1-12.7-10.7-22.7-23.1-23.8c-0.8-0.1-1.7-0.1-2.5-0.1c-0.5,0-0.9,0-1.4,0
		c-4.4,0.2-8.5,2-11.9,4.8c0.7-1.4,1.3-2.7,1.8-4.1c1.9-5.2,1.5-10.8-1.1-15.6c-2.7-4.9-7.4-8.4-13-9.6l-0.3-0.1
		c-1-0.2-2.1-0.3-3.2-0.3c-5.7,0-11.1,3.1-14,8c-7.2,11.9-11.4,25.5-13.2,32.5c-1.8,6.8-3.9,13.5-6.3,19.9
		c-13.9,37.3-31.1,61.1-43.1,74.5c-10.6,11.9-19.2,17.9-21.9,19.8l-1.3-0.1c-0.3-0.2-0.7-0.6-1.4-1.5c-1.2-1.8-1.9-4.1-1.9-6.6
		l-0.2-14.3c-0.1-5.6,0.9-9.8,1.9-12.6c0.6,0.3,1.1,0.5,1.3,0.5l0.5,0.2l0.6,0c0.2,0,0.4,0,0.6,0c12.9,0,25.2-5.2,33.7-14.2
		c3.6-3.8,6.9-8.1,9.8-12.7c8.8-13.9,13.5-30.4,13.5-47.7c0-1.8-0.2-3.4-0.6-4.9c-0.9-3.6-2.6-7.1-4.5-9.8
		c-6.3-8.4-16.7-13.4-27.9-13.4l-1.6,0c-7.7,0-15.3,2.4-21.1,6.8c-12.7,9.5-23.8,25.3-33,47c-7.2,17-11.5,33.5-13.4,41.8
		c-0.7,3.1-2,15.3-2,18.4l-0.1,10.8c-0.1,7.4,2.3,14.7,6.8,20.6c2.5,3.4,5.1,6.1,7.1,8c-5.9,5-9.8,6.2-12.2,6.2
		c-3.8,0-6.9-3.2-9.3-9.4c-1.5-3.9-2.4-14.5-2.4-20.5v-27c7.6-39.7,19.4-71.2,28-90.7c7.2-16.3,13.4-27.1,15.9-31.3
		c2.2,0,5.9,0.1,10.2,0.1c4.2,0,8.2-0.1,12-0.2c0.2,0,0.4,0,0.6,0c10.8,0,22.6,8.8,22.7,8.9l6.4,4.8l0-8v-15.1v-0.1l0-0.1
		c-0.9-14-12.3-22.1-31.2-22.1c-0.6,0-1.1,0-1.7,0c6.2-8,5.5-12.6,4.5-14.6c-6.3-16.8-18.3-19.4-24.9-19.4c-3.9,0-6.7,0.9-7,1
		l-0.3,0.1l-0.3,0.1c-11.9,5.8-22.7,28.5-26,36c-51.2,7.3-56.6,20.8-57.2,23.5l-0.1,0.2l0,0.3c-1.3,16.1,14.5,25,15.1,25.3l2.6,1.4
		l2.1-2c7.3-7,15.3-9.9,20.4-11c-19.3,74.1-57.8,128.9-63.3,135.2c-0.4,0.1-0.9,0.2-1.4,0.2c-0.2,0-0.4,0-0.6,0l0.1-6.7
		c0.2-7.5,1.3-14.8,3.5-21.8c3.9-12.5,8.4-24,12.1-33.2c6.9-17.5,9.8-25.4,7.3-30.4c-0.7-1.3-1-2.1-1.2-2.7c-1-2.6-2.1-3.2-4.4-4.2
		c-1.2-0.5-3.3-1.3-7.1-3.3c-4.1-2.1-7.9-3.2-11.1-3.2c-5.8,0-8.3,3.2-9.2,4.5l-13.5,17.9c-8.2-4.7-15.2-7.1-18.8-8.1
		c-1.9-0.6-3.9-0.8-6-0.8c-0.3,0-0.7,0-1,0l-5.8,0.3l-0.3,0l-0.3,0.1c-10.8,2.3-21.6,12.1-31.9,29.2c-8.2,13.5-14.2,28.4-17.1,36.1
		c-1.4,3.8-3.3,7.3-5.6,10.6c-27.5,39-66,85.5-93,85.5c-10.9,0-19-7.9-24.2-23.6c-2.7-8-4-16.9-3.9-26.2l0.1-9.3
		c0-1.4,0-2.8-0.1-4.2c-0.1-2.2,0-5.5,0.2-9.8c0.4-7.3,1.5-14.8,3.2-22.2c13.3-58.1,28.8-100,46.3-124.6
		c14.4-20.3,25.4-21.9,28.5-21.9c0.7,0,1.1,0.1,1.3,0.1c2.6,0.5,4.1,3.5,4.7,4.7c1.3,3,1.5,6.6,1.6,7.7v10c0,16.7-2.1,33.4-6.1,49.6
		c-11.3,45.5-22.9,66.3-23,66.5l-1.6,2.8l2.4,2.1c10.1,9.2,20.2,13.8,30,13.8c10.8,0,17.1-5.8,17.4-6l0.9-0.8l0.3-1.1
		c12.4-47.3,18.2-87,17.3-118.1c-0.7-24.4-5.4-43.1-14.1-55.7c-8.3-11.9-17.2-14-20.6-14.4c-3.3-0.3-6.5-0.6-9.5-0.6
		C206,435.4,205.5,435.4,204.9,435.4L204.9,435.4z"/>
</g>
<path class="st2" d="M823,480.8c0,0-31.2,9.4-72.4-1.9c-44.9-12.3-108.3-18.6-119.6-10.6c-16.5,11.7-12.7,39.3,74,32
	c2.9-0.2,6,1,7.3,3.6c1.2,2.2,1.4,7.5-4.4,8c-10.8,1-46.4,4.7-79.1,0c-31.9-4.6-42.8-31.1-41.8-49c1.1-19.6,27.9-31.3,55.8-30.7
	c27.9,0.6,118.5,33.3,133,36.9c14.5,3.6,29.4,8.2,46.5,7C839.3,475,823,480.8,823,480.8z"/>
<path class="st3" d="M599.5,396.1c0,0,72.1-52.1,194.2-38.7c0,0,38.7,4.5,47.8,28.3v46.5c0,0-67.5-28.6-146.4-10
	c0,0,102.4,3.7,173,62.5l-3.8-109.4c0,0,75.3,22.5,115.3-35.2c11.6-16.7,17.4-36.6,17.4-56.9v-5.6c0-20.2-7-39.8-20.4-54.9
	c-17.2-19.5-47.4-34.9-97.6-12c0,0,0.8-70.7-99.4-76.7c0,0-54.2-3.4-97.9,45.4c0,0-23.9,25.7-101.7,47.6c0,0,38.3,4.8,78.1-10.8
	c39.8-15.6,48.4-31.8,78.2-41.6s61.2-15.5,88.8-0.3c13.8,7.6,21.2,15.5,25.8,23.6c6.9,12.1,8.2,26.6,4,39.9
	c-2.1,6.7-4.2,13.6-5,16.1c-1.7,5.6,16.3-31.1,56.9-33.3c13.6-0.7,25.4,1.6,35.2,5.9c20.7,9,33.9,29.8,33.9,52.4v0
	c0,20.7-7.4,41-21.4,56.3c-3.6,4-7.8,7.8-12.6,11.2c-11.2,8.1-24.7,12.3-38.5,12.6h0c-18.3,0.3-36.4-3.4-52.9-11.2
	c-3.3-1.6-6.6-3.3-9.8-5.2c0,0,23.6-16.8,23-47.2c0,0-15.6,30.2-47.2,39.1c0,0-15.9,1.1-25.3-1.4c0,0,32.4-24.8,19.1-83.8
	c0,0-2.3,60.6-53.5,78.7s-1.4,0.3-1.4,0.3l-16.5,0.6c0,0,19.6-13.7,10.2-48.3c0,0-2.8,37.7-63.2,56.1h-36.7c0,0-45.8-5-66.9-54.4
	c0,0-10.5,35.2,42.4,65.3c0,0-4,14.5-39.5,22.6l-15.7,0.2c0,0-50.8-4.1-62.2-76.7v-12.8c0,0,1.1-59.7,76.2-69.8
	c75.1-10.1,85.9-46.3,85.9-52.5c0,0-10.8,33.5-110.4,40.2c0,0-64.9,8.9-80.8,77.6v35.7C478.5,312.4,497.5,406.7,599.5,396.1z"/>
<path class="st4" d="M451.8,429.6c0,0,9.7-7.8,21.1-8.4L436.4,347c0,0,35.8-10.6,18.2-77.1c0,0-37.9-89-88-77.1
	c0,0-39.4,15.6-9.1,113.2c0,0,19.7,55.1,68.3,46.2L451.8,429.6z"/>
<path class="st4" d="M373.4,485.9l1.2-2.4c0.8-1.7,0.8-3.7,0-5.4c-4.9-9.5-21.5-42-28.9-59.9c-2.3-5.6-1.7-12,1.5-17.1
	c1.8-2.8,3.9-6.1,5.9-9.2c4-6.2,5.5-13.7,4-20.9c-0.3-1.3-0.6-2.6-0.9-3.9c-1.5-6.6-50.3-118.6-59.4-139.6c-1.2-2.9-4.5-4.5-7.5-3.4
	c-1.3,0.5-2.4,1.4-3.1,3c-0.5,1.3-0.4,2.9,0.1,4.2L335.7,352c0,0,1.9,11.7-6.4,5.4c-1.1-0.8-2.2-2.1-2.7-3.4L278.9,234
	c-0.6-1.4-2.1-3.1-3.5-3.7c-2.4-1-6.3-0.4-6.3,6.2c0,0.7,0.2,1.4,0.4,2.1l48.2,119.7c0.2,0.5,0.3,1,0.4,1.5
	c0.3,2.6,0.8,10.3-5.6,3.7c-0.5-0.5-0.9-1.2-1.2-1.8L262,241.2c-0.6-1.4-1.7-2.6-3.2-3.3c-3.3-1.4-8.8-2.5-8,6.5
	c0.1,0.6,0.2,1.2,0.4,1.7L301,367.1c0,0,1,8.3-4.9,3.9c-0.9-0.6-1.5-1.5-1.9-2.5l-49.5-120.1c-0.4-1-1.1-1.9-2-2.5
	c-2.8-2.2-9.1-5.5-9.9,5.5c-0.1,0.8,0.1,1.7,0.4,2.5l46.1,120.3c0,0.1,0.1,0.2,0.1,0.3c0.6,1.8,6.3,19.3,17.6,27.2
	c10.8,7.6,23.1,11.1,25.3,11.6c0.3,0.1,0.5,0.2,0.8,0.3c1.6,0.7,7,3.2,7.5,6.5l19.9,58.5c0.6,1.7,1.8,3,3.5,3.7
	c2.5,1,6.5,2.9,9.9,5.6C367,490.4,371.6,489.5,373.4,485.9z"/>
<path class="st5" d="M257.9,453.6c0,0,2.5-12.1,24.5-40.9c0,0-4.2-2.4-6.3-9.1c0,0-21.4,28.1-26.2,40.2
	C250,443.8,253.2,442.5,257.9,453.6z"/>
<path class="st5" d="M244.1,435.8c0,0,11.9-23.7,28.2-41c0,0-4.8-6.4-7.7-19.5c0,0-17.6,19-35,51.1
	C229.6,426.3,238.2,427.8,244.1,435.8z"/>
<path class="st6" d="M285.2,654.1c4.9-5.5,18.3-22.4,38.8-63.4c0,0-2.3-12-6.8-10.6c-4.6,1.4-24.2,17-37,76.2l0,0
	C282.1,656.3,284,655.5,285.2,654.1z"/>
<path class="st2" d="M280.2,547.2c0,0,25.3-17.3,63.4-17c0,0,16.2-1.7,17.6-13.7c1.4-12-1.8-14.8-15.3-19.8c0,0-36.5-2.2-73.8,42.4
	C272.3,539.1,265.7,551.7,280.2,547.2z"/>
<path class="st6" d="M495.6,603c2.7-1.6,14.5-9.8,20.6-35.2c0.6-2.7,1-5.4,1-8.2v-2.1c0-1.2-1-2.2-2.3-2.2l0,0
	c-0.7,0-1.4,0.3-1.8,0.9c-3,4.1-15,21.3-21.6,43.3c-0.6,1.9,0.9,3.8,2.9,3.8l0,0C494.8,603.3,495.2,603.2,495.6,603z"/>
<path class="st6" d="M869.7,584.8c0,0,26.1-30,38.5-58.2c1.6-3.7,2.4-7.8,2.4-11.9l0,0c0-2.3-2.9-3.5-4.5-1.8c0,0,0,0.1-0.1,0.1
	c-2.5,2.8-19.3,16.8-41.3,65.9C864.8,578.9,862.7,587.1,869.7,584.8z"/>
<path class="st7" d="M883.8,642.9c0,0-12.9,38.3-28.8,55.8h-0.6c-2,0-3.6-1.6-3.6-3.6c0-1,0.3-2,0.9-3.1c2.1-3.5,6.6-22.3,30.2-50.1
	L883.8,642.9z"/>
<path class="st2" d="M954,671.8c0.5,0,1.2,0.1,1.9,0.2c9.5,1.5,8.5,15.4-1.1,15.7c-0.2,0-0.4,0-0.5,0c-0.7,0-1.4,0-2-0.1
	c-9.2-1.1-9.4-14-0.3-15.6c0.1,0,0.2,0,0.3,0C952.8,671.8,953.4,671.8,954,671.8z"/>
<path class="st2" d="M922.3,685c0,0,20.5-8.2,0-16.4c-20.5-8.2-768.1-26.8-772.6,105c0,0,0.8,11.9,15.2,11.9
	C164.8,785.5,370.2,669.9,922.3,685z"/>
<path class="st8" d="M243.7,769.1c0,0,90,153.4,294.2,151.9c204.2-1.5,284.6-159.3,299.8-183.1l-15.6-10.2
	c0,0-81.5,175.5-284.2,175.5S260,761.3,260,761.3L243.7,769.1z"/>
<path class="st8" d="M270.8,763.5c0,0,94.4,136.2,267.1,132.9s260.6-134.4,274-168.8l-9.1-3.5c0,0-70.1,157.8-264.9,162.2
	c0,0-142.1,14.5-255.5-124L270.8,763.5z"/>
<polygon class="st9" points="544.9,747.9 550.6,731.1 559.3,746.4 575.2,747.9 563.8,758.3 569.2,773.9 554,767.2 540.5,776.2 
	543,761.7 528.6,751.2 "/>
<polygon class="st9" points="623,727.6 628.7,713.3 635.2,727.6 648.4,727.6 638.9,735.6 645,749.6 631.4,742.7 619.6,751.6 
	622.6,739 609,729.3 "/>
<polygon class="st9" points="464.1,738.1 469,724.3 476.2,736.2 490.6,738.1 480.4,746.6 485.7,761.1 472.8,752.9 460.3,763 
	463.7,748.7 451.2,741 "/>
<g>
	<path class="st1" d="M399.5,827.2c0,0-4.5,4-6.7,12.2c-0.8-0.2,24.1,9.1,63.8-63.6c0.1,0.3-24.3-9.2-20.5,13.9
		c0.1,0-4.4,3.9-12.4-4.4c-0.4-0.4-6.7-24.5,22.9-20.6c-0.1,0.3,26.2,8.8,29.5,9.6c0,0,8.8,2.1,11.5,1.2c0,0,3.5,2.7-0.8,7.1
		c0,0-1,0.6-3.1,0.2c-7.6,21.7-15.6,43.3-24.2,64.8c-0.1-0.2-4,16.2,19.2,5.4c6.2-19,12.1-38.2,17.6-57.4c0,0,1.8-3.4-3.8-1.7
		c0,0-4.4-3.1,1.5-7.2c0,0,7.1-5.7,16.1-3.9c0,0,5.7,2.6,2.2,9.2c-3.4,14.8-7,29.5-10.8,44.2c0.2,0.2,22.7-0.6,14.4-21.6
		c0.1,0,5.9-9.5,15.3-3.9c-0.4-0.1,12.7,15.3-14,28.6c-0.4-0.1,9.3,31.6,25.9,16.4c1.9-13.2,3.7-26.4,5.4-39.6
		c-2.2,0.1-4.5,0.2-6.7,0.2c0,0-2.4-7.8,7.6-7.4c0.6-4.3,1.1-8.7,1.6-13.1c0.1,0,4.7-9.3,15.3-5.2c-0.3,5.5-0.6,11-0.9,16.5
		c3.2-0.4,6.3-0.8,9.4-1.3c0,0,2.5,6.8-4.1,7.8c-2,0.3-4.1,0.5-6.1,0.7c-0.9,12.4-2,24.8-3.2,37.2c-0.2-0.1-1.4,15.9,19.2,0.4
		c-0.5-0.3-8.6-38.9,20.6-52.1c0,0,10-3.6,16.7-0.5c0.1,0,4.3-7.6,14.1-6.4c2,15,3.8,30.1,5.5,45.2c-0.2-0.1,3.3,12,17.8-5.3
		c-1.8-11.3-3.6-22.6-5.6-33.8c0,0-1.3-3.7-4.3,0.7c0,0-2,0.4-3.3-4.4c0,0,3.8-8.5,10.7-12.1c0,0,7.6-4.9,9.4,2.6
		c2.9,12.5,5.7,25.1,8.3,37.7c0,0,2.5,6.7,9.2,1.5c0,0,5.6-2.5,7.6-10.3c-3.1-12.1-6.4-24.2-9.7-36.3c0-0.1-0.1-10.7,12.3-11.8
		c4.9,14.3,9.6,28.6,14.2,43c-0.2,0,6.8,12.6,17.7-10.7c0,0,7-1.3,3.3,6.4c0.1-0.1-4.5,17.3-18.3,22.3c0.1,0-8.7,5.7-16.6-6.5
		c0-0.1-0.1,15.2-13.8,20.9c0.1,0-10.7,6-18.2-3.9c0,0-4.4,11.5-17.2,16.7c-12.8,5.2-18.6-3.6-19.1-8.1c0-0.1-2.9,12.3-17.5,17.5
		c0.1,0-12.6,4.6-21.3-7.6c0.1,0-8.9,12.2-24.9,14.4c0,0.1-13,1.4-14.7-8.3c0.1,0-9.1,9.3-18.4,9.7c0.2,0.1-17,2.7-21.9-30.4
		c-1.3,0.1-2.7,0.2-4,0.3c-2.1,7.8-4.3,15.6-6.5,23.3c0.1,0-5.7,8.5-19.1,1.4c0.8-2.2,1.7-4.3,2.5-6.5c0,0-8.7,7-23.2,5.6
		c0,0.1-16.3-3.4-14.2-15.4c3.2-7,6.4-14,9.6-21.1c-5.7-1.2-11.4-2.5-17.1-4c0.2-0.1-18.7,28.7-43.9,23c0,0.1-16.7-4.2-9.8-24.2
		C377.6,824.9,384.5,814.1,399.5,827.2z"/>
	<path class="st4" d="M399.5,827.2c0,0-4.5,4-6.7,12.2c-0.8-0.2,24.1,9.1,63.8-63.6c0.1,0.3-24.3-9.2-20.5,13.9
		c0.1,0-4.4,3.9-12.4-4.4c-0.4-0.4-6.7-24.5,22.9-20.6c-0.1,0.3,26.2,8.8,29.5,9.6c0,0,8.8,2.1,11.5,1.2c0,0,3.5,2.7-0.8,7.1
		c0,0-1,0.6-3.1,0.2c-7.6,21.7-15.6,43.3-24.2,64.8c-0.1-0.2-4,16.2,19.2,5.4c6.2-19,12.1-38.2,17.6-57.4c0,0,1.8-3.4-3.8-1.7
		c0,0-4.4-3.1,1.5-7.2c0,0,7.1-5.7,16.1-3.9c0,0,5.7,2.6,2.2,9.2c-3.4,14.8-7,29.5-10.8,44.2c0.2,0.2,22.7-0.6,14.4-21.6
		c0.1,0,5.9-9.5,15.3-3.9c-0.4-0.1,12.7,15.3-14,28.6c-0.4-0.1,9.3,31.6,25.9,16.4c1.9-13.2,3.7-26.4,5.4-39.6
		c-2.2,0.1-4.5,0.2-6.7,0.2c0,0-2.4-7.8,7.6-7.4c0.6-4.3,1.1-8.7,1.6-13.1c0.1,0,4.7-9.3,15.3-5.2c-0.3,5.5-0.6,11-0.9,16.5
		c3.2-0.4,6.3-0.8,9.4-1.3c0,0,2.5,6.8-4.1,7.8c-2,0.3-4.1,0.5-6.1,0.7c-0.9,12.4-2,24.8-3.2,37.2c-0.2-0.1-1.4,15.9,19.2,0.4
		c-0.5-0.3-8.6-38.9,20.6-52.1c0,0,10-3.6,16.7-0.5c0.1,0,4.3-7.6,14.1-6.4c2,15,3.8,30.1,5.5,45.2c-0.2-0.1,3.3,12,17.8-5.3
		c-1.8-11.3-3.6-22.6-5.6-33.8c0,0-1.3-3.7-4.3,0.7c0,0-2,0.4-3.3-4.4c0,0,3.8-8.5,10.7-12.1c0,0,7.6-4.9,9.4,2.6
		c2.9,12.5,5.7,25.1,8.3,37.7c0,0,2.5,6.7,9.2,1.5c0,0,5.6-2.5,7.6-10.3c-3.1-12.1-6.4-24.2-9.7-36.3c0-0.1-0.1-10.7,12.3-11.8
		c4.9,14.3,9.6,28.6,14.2,43c-0.2,0,6.8,12.6,17.7-10.7c0,0,7-1.3,3.3,6.4c0.1-0.1-4.5,17.3-18.3,22.3c0.1,0-8.7,5.7-16.6-6.5
		c0-0.1-0.1,15.2-13.8,20.9c0.1,0-10.7,6-18.2-3.9c0,0-4.4,11.5-17.2,16.7c-12.8,5.2-18.6-3.6-19.1-8.1c0-0.1-2.9,12.3-17.5,17.5
		c0.1,0-12.6,4.6-21.3-7.6c0.1,0-8.9,12.2-24.9,14.4c0,0.1-13,1.4-14.7-8.3c0.1,0-9.1,9.3-18.4,9.7c0.2,0.1-17,2.7-21.9-30.4
		c-1.3,0.1-2.7,0.2-4,0.3c-2.1,7.8-4.3,15.6-6.5,23.3c0.1,0-5.7,8.5-19.1,1.4c0.8-2.2,1.7-4.3,2.5-6.5c0,0-8.7,7-23.2,5.6
		c0,0.1-16.3-3.4-14.2-15.4c3.2-7,6.4-14,9.6-21.1c-5.7-1.2-11.4-2.5-17.1-4c0.2-0.1-18.7,28.7-43.9,23c0,0.1-16.7-4.2-9.8-24.2
		C377.6,824.9,384.5,814.1,399.5,827.2z"/>
</g>
<g>
	<path d="M441.9,821c3.9,0.9,7.7,1.7,11.6,2.6c6.5-14.5,13-29,19.5-43.4c-2.1-0.7-4.3-1.4-6.4-2.1
		C458.4,792.4,450.2,806.7,441.9,821z"/>
	<path class="st4" d="M441.9,821c3.9,0.9,7.7,1.7,11.6,2.6c6.5-14.5,13-29,19.5-43.4c-2.1-0.7-4.3-1.4-6.4-2.1
		C458.4,792.4,450.2,806.7,441.9,821z"/>
</g>
<g>
	<path d="M616.2,808.2c0.5,11.2,1,22.4,1.5,33.6c0,0-9,19.2-17.6,5.6c0,0-8.7-29.3,7.7-38.2C607.9,809.2,612.8,807.3,616.2,808.2z"
		/>
	<path class="st4" d="M616.2,808.2c0.5,11.2,1,22.4,1.5,33.6c0,0-9,19.2-17.6,5.6c0,0-8.7-29.3,7.7-38.2
		C607.9,809.2,612.8,807.3,616.2,808.2z"/>
</g>
</svg>
