<?xml version="1.0" encoding="utf-8"?>
<!-- Generator: Adobe Illustrator 22.1.0, SVG Export Plug-In . SVG Version: 6.00 Build 0)  -->
<svg version="1.1" id="Слой_1" xmlns="http://www.w3.org/2000/svg" xmlns:xlink="http://www.w3.org/1999/xlink" x="0px" y="0px"
	 viewBox="0 0 1030 887" style="enable-background:new 0 0 1030 887;" xml:space="preserve">
<style type="text/css">
	.st0{fill:#F162B1;}
	.st1{fill:#FFFFFF;}
	.st2{fill:#F162B1;stroke:#FFFFFF;stroke-width:4;stroke-miterlimit:10;}
	.st3{fill:none;stroke:#FFFFFF;stroke-width:6;stroke-miterlimit:10;}
	.st4{fill:none;stroke:#FFFFFF;stroke-width:4;stroke-miterlimit:10;}
	.st5{fill:#FFFFFF;stroke:#FFFFFF;stroke-width:3;stroke-miterlimit:10;}
	.st6{stroke:#FFFFFF;stroke-width:5;stroke-miterlimit:10;}
	.st7{stroke:#FFFFFF;stroke-width:4;stroke-miterlimit:10;}
	.st8{fill:#FFFFFF;stroke:#FFFFFF;stroke-miterlimit:10;}
	.st9{fill:#FFFFFF;stroke:#FFFFFF;stroke-width:4;stroke-miterlimit:10;}
</style>
<g>
	<path class="st0" d="M59.7,693.6c-3.6,0-7-0.5-10.2-1.6c-6.9-2.2-17.1-7.5-26.3-19.9c-11-14.8-17.7-35.8-19.9-62.6
		C-0.3,568,8.4,512.4,26,464.5c9.9-27.1,22.1-50.5,36.2-69.6c15.9-21.5,33.9-37,53.5-45.9c7.6-3.5,15.9-5.2,24.7-5.2
		c0.6,0,1.2,0,1.8,0c3.3,0.1,6.8,0.3,10.4,0.7c2.7,0.3,12.3,2.2,21.2,15c9.4,13.6,14.6,34,15.3,60.7c1,34.4-5.5,78.5-19.2,130.9
		l-0.1,0.6l-0.4,0.4c-0.3,0.2-6.7,6-17.7,6c-10.3,0-21-5-31.8-14.8l-1.2-1.1l0.8-1.4c0.1-0.2,13.1-23.7,25.9-74.8
		c4.6-18.3,6.9-37.1,6.9-55.9v-11.2c-0.1-1.6-0.4-5.7-2-9.5c-0.9-2.2-3.1-5.9-7-6.7c-0.4-0.1-1.1-0.2-2-0.2c-8,0-49.8,8-85.8,165.2
		c-1.9,8.3-3.1,16.8-3.6,25.1c-0.3,4.9-0.4,8.7-0.2,11.2c0.1,1.5,0.1,3,0.1,4.6l-0.1,10.4c-0.1,10.7,1.4,20.8,4.5,30
		c4.2,12.8,12.8,28,29.3,28c25,0,60.6-32.4,105.7-96.3c2.7-3.8,4.9-8,6.5-12.4c7.3-19.6,27-65.7,52.8-71.2l0.2,0l6.6-0.3
		c0.3,0,0.7,0,1,0c2.1,0,4.1,0.3,6,0.8c4,1.2,12,3.9,21.4,9.4l1.4-0.2l15.9-21.1c0.5-0.9,2.8-3.9,8.2-3.9c3.2,0,7,1.1,11.3,3.3
		c4.4,2.2,6.8,3.2,8.2,3.7c2.2,0.9,2.7,1.2,3.5,3.3c0.3,0.7,0.6,1.7,1.4,3.2c2.4,4.8-1.6,14.9-8.2,31.8
		c-4.1,10.3-9.1,23.1-13.5,37.1c-2.5,8-3.9,16.4-4.1,25l-0.2,8.2c0.2,0.3,0.5,0.9,1.1,1.5c0.1,0.1,0.7,0.3,2,0.3c1,0,2.1-0.2,3-0.5
		c4.4-4.2,50.4-67.5,72.6-156c-5.1,0.7-17,3.2-27.7,13.5l-1.1,1l-1.3-0.7c-0.7-0.4-17-9.5-15.6-25.9l0-0.1l0-0.1
		c0.4-1.7,5.1-16.4,63-24.4c2.6-5.9,15.2-33.6,28.4-40.1l0.1-0.1l0.1,0c0.1,0,3-1,7.1-1c6.7,0,19,2.6,25.5,20.1
		c0.7,1.4,2.1,7-8.4,18.2c1.9-0.2,4.5-0.4,7.5-0.4c19.9,0,31.4,7.9,32.4,22.3l0,0.1v20.8l-3.2-2.4c-0.1-0.1-13.9-10.4-26.8-10.4
		c-0.2,0-0.5,0-0.7,0c-4.1,0.1-8.6,0.2-13.3,0.2c-5.9,0-10.7-0.1-12.8-0.2c-12.1,19-37.3,70.9-50,138.2V582c0,5.5,0.8,18.5,2.8,23.7
		c3,8,7.3,12,12.6,12c4.8,0,10.6-3.1,17.2-9.3c-2.2-1.9-6-5.5-9.7-10.4c-4.6-6.1-7.1-13.7-7-21.4l0.1-12.1c0-3.2,1.4-16.7,2.2-19.9
		c4.9-21.6,19.7-74.2,50.8-97.5c6.1-4.6,14-7.1,22.1-7.1l1.8,0c11.7,0,22.6,5.2,29.2,13.9c2,2.7,3.7,6.4,4.6,10
		c0.4,1.5,0.6,3.1,0.6,4.9c0,18.9-5.1,36.8-14.7,51.9c-3.2,5-6.8,9.6-10.7,13.8c-9.1,9.6-22.1,15.1-35.8,15.1l-0.9,0l-0.3-0.1
		c-0.3-0.1-1.9-0.6-3.3-1.8c-1.5,3.1-3.6,9.1-3.4,17.7l0.2,16c0,3.3,0.9,6.3,2.6,8.7c1,1.5,2,2.4,3,2.8l2.7,0.2
		c4.9-3.1,45.8-30.8,74.1-106.7c2.7-7.2,5.1-14.7,7.1-22.4c2-7.7,6.6-22.6,14.5-35.6c2.9-4.8,8.1-7.7,13.6-7.7c1,0,2.1,0.1,3.1,0.3
		l0.3,0.1c5.5,1.2,10.2,4.7,12.9,9.5c2.6,4.7,2.9,10.3,1,15.4c-1.3,3.4-3.2,6.9-5.7,10.7c-3.7,9.5-7.5,19.9-9.4,26.5
		c2.5-3.8,6.2-10.4,11-21.8c3.1-7.4,10.1-12.4,17.8-12.8c0.5,0,0.9,0,1.4,0c0.8,0,1.7,0,2.5,0.1c12.7,1.2,22.6,11.4,23.5,24.3
		c0.9,11.3,2.4,29.1,4.1,40.9c3.2-13.8,9.6-39.2,16.4-51.4c2.3-4.2,6.9-6.8,11.8-6.8H669c7.9,0,14.8,5.3,16.4,12.7l0.2,0.9l-0.2,0.6
		c-0.1,0.3-11.5,29.4-22.3,72.2c0,1.3,0,9.1,3.5,13.4c3.3-2,13.6-9.7,23.5-33.2c2-4.7,3.6-8.5,4.9-11.6c5.7-13.4,5.7-13.4,8.2-18
		c0.6-1.1,1.3-2.4,2.2-4.1c2.7-5.1,5-13.4,7.5-22.2c1.3-4.7,2.7-9.5,4.2-14.3c3.3-10.6,13.2-17.7,24.4-17.7c7.2,0,13.8,2.9,18.7,8.3
		l1.1,1.3l-0.1,0.9c-0.1,0.5-1.3,11.5-12.4,37.5c3.3-4.6,6.9-9.7,10.7-14.8c25.2-33.9,30.2-34.4,32.1-34.5l0.2,0l0.2,0
		c1.8,0.1,3.8,0.1,5.9,0.2c10,0.1,22.4,0.2,27.8,11.2c2.1,4.3,2.5,9.4,1,14.4c-3.6,12.3-15.3,53.5-17,71.1l0.6,9.5l0.6,1.4l2.4-0.3
		c1.4-1.1,8.4-7.2,22.7-28.4c1.6-2.4,2.7-5.3,3-8.4c0.7-5.9,3.1-16.7,4.5-19.7c0.3-0.6,0.6-1.3,0.9-1.9c0.4-0.8,0.8-1.5,1-2.1
		l0.2-0.5c12.2-32.2,30.6-58.1,54.8-76.9l0.2-0.2l0.2-0.1c0.2-0.1,5.3-2.2,12.2-2.2c5.7,0,10.9,1.4,15.4,4.2l10.1,6.2
		c1.9-5,7.1-15.6,17.5-16l5.4-0.2c0.3,0,0.6,0,0.9,0c3.4,0,6.5,0.7,9.2,2c5.6,2.7,8.1,6.1,7.9,10.6c0,1-0.1,1.9-0.2,2.9
		c-0.1,1.1-0.2,2.1-0.2,3.1c-0.2,7.7-1.5,28.5-8.9,55.2c-2.4,8.6-1.3,10.2-1.2,10.4c0,0,0.1,0,0.1,0c4.1,0,16.6-13.3,24.2-22.7
		c0.3-0.4,8.2-9.9,20.1-13.1c0.7-0.2,1.5-0.3,2.1-0.3c1.6,0,2.9,0.6,3.8,1.7c1.6,1.8,2,5,1.4,9.6c-1.4,9.7-7,18.9-15.3,25
		c-5.2,3.8-13.3,10.1-22.4,17.8c-15.1,12.9-26.9,29.6-34,48.3c-15,39.6-44.3,107.5-72.4,118.5c-6.1,2.4-11.8,3.6-16.9,3.6
		c-8.9,0-16.3-3.6-21.6-10.4c-8.6-11.2-9.3-28.1-6.3-39.1c4.7-17.3,56-71.5,77.9-94c8.6-8.9,14.1-19.6,15.7-30.9
		c0.3-2.3,0.5-4.5,0.5-6.6c-6.6,10.5-22.4,34.5-39,51.2c-6,6.1-14.4,9.6-22.8,9.6c-3.1,0-6.2-0.5-9.2-1.4c-3-1-5.7-2.3-8-4
		c-3.9,6.4-16.6,25.4-31.2,28.2c-3.2,0.6-6.5,0.9-9.9,0.9c-8.2,0-15.9-1.8-21.6-5c-7-3.9-10.9-9.8-11.5-17
		c-1.1-14.9,0.6-41.4,4.1-58.4c-8.6,11.3-26.1,37.7-46.9,86.4c-3.9,9-12.9,15.1-22.4,15.1c-1.7,0-3.5-0.2-5.2-0.6
		c-5-1.2-8.7-3.8-11.1-7.8c-2.5-4.4-3.3-10.3-2.5-17.8c-6.8,10.4-18.5,24-33.1,24c-5,0-9.9-1.6-14.7-4.8
		c-10.1-6.6-15.9-18.6-15.2-31.1l1-17.6c-2.1,0.3-5.5,0.7-9.2,0.7c-13.6,0-22.2-4.7-24.8-13.7l-0.2-0.6l0.2-0.6
		c0-0.1,2-7.4-1.1-20.8c-8.9,7.9-40.1,39.9-43.2,100.5l-0.2,3.6c-0.4,7.6-3.4,14.6-8.4,19.8c-3.5,3.6-7.1,5.5-10.6,5.5
		c-3.5,0-6.9-1.8-9.9-5.4c-3.8-4.5-6-10.5-6.1-16.8l-0.5-31.8l-25.8,30.8l-0.1,0.1c-0.8,0.7-19.8,17.5-37.9,17.5
		c-0.8,0-1.6,0-2.4-0.1c-2.6,3.7-12.6,15.7-35.3,22.2c-5.7,1.6-10.7,2.4-15.3,2.4c-25.8,0-40.2-25.4-43.8-77.6
		c-5.5,10.9-18.1,31-40.7,43.9c-4,2.3-8.6,3.5-13.2,3.5c-9.9,0-18.7-5.2-23-13.7c-4-7.8-5.6-18.3-4.8-31.4
		c-8.6,16.3-27.2,48.4-44.8,57.8l-0.1,0.1l-0.1,0c-0.1,0-2.9,1.1-7.4,1.1c-6.9,0-19.8-2.6-31.6-19.2c-3.9,6.1-14.5,21.8-29.7,37.6
		c-17.9,18.6-46,41.2-78.1,42.9l-0.1,0H59.7z"/>
	<path class="st1" d="M140.4,345.8c0.6,0,1.2,0,1.7,0c3,0.1,6.4,0.3,10.2,0.7c16.1,1.7,59.8,34.9,15.5,204.2c0,0-6,5.5-16.4,5.5
		c-7.9,0-18.2-3.2-30.4-14.2c0,0,13.1-23.2,26-75.3c4.6-18.5,6.9-37.4,6.9-56.4v-11.2c-0.1-2.5-0.6-6.6-2.1-10.2
		c-1.5-3.5-4.2-7.1-8.5-7.9c-0.6-0.1-1.4-0.2-2.4-0.2c-12.3,0-52.9,14.4-87.7,166.8c-1.9,8.4-3.2,16.9-3.6,25.5
		c-0.2,4.2-0.4,8.4-0.3,11.4c0.1,1.5,0.1,3,0.1,4.5l-0.1,10.4c-0.1,10.4,1.3,20.8,4.6,30.6c4.6,14,13.7,29.4,31.2,29.4
		c21.2,0,54.6-22.5,107.4-97.2c2.8-4,5.1-8.3,6.8-12.8c6.5-17.4,26.2-64.6,51.4-70l6.4-0.3c0.3,0,0.6,0,0.9,0c1.8,0,3.7,0.2,5.5,0.8
		c4.3,1.2,12.3,4,21.5,9.5l3-0.4l16.5-21.8c0,0,1.5-3.1,6.5-3.1c2.5,0,5.9,0.8,10.4,3.1c13.5,6.9,8.5,1.9,12.3,9.4
		c3.4,6.6-10.9,32.6-21.9,67.5c-2.6,8.3-4,16.9-4.2,25.6l-0.2,8.6c0,0,0.4,1.2,1.7,2.5c0.6,0.6,2,0.9,3.4,0.9c1.4,0,2.9-0.3,4-0.7
		c2.2-0.9,51.7-67.5,74.2-160c0,0-16.8,0-31.7,14.3c0,0-15.9-8.7-14.6-24c0,0,3.2-14.9,62.5-23c0,0,14-33.3,27.9-40.2
		c0,0,2.6-0.9,6.4-0.9c6.9,0,17.7,2.8,23.7,18.9c0,0,2.9,5.1-9.5,17.5l0.2,2.2c0,0,4.4-0.7,10.2-0.7c11.7,0,29.2,2.9,30.4,20.5v16.8
		c0,0-14.3-10.8-28-10.8c-0.3,0-0.5,0-0.8,0c-4.7,0.1-9.2,0.2-13.2,0.2c-8,0-13.8-0.2-13.8-0.2s-34.5,52.9-51,140.1V582
		c0,5.8,0.9,19,2.9,24.4c2.5,6.5,6.9,13.3,14.5,13.3c5.1,0,11.8-3.1,20.2-11.4c0,0-5.7-4.3-11.1-11.5c-4.4-5.8-6.7-13-6.6-20.2
		l0.1-12.1c0-3.1,1.4-16.5,2.1-19.5c4-17.4,18.5-72.7,50.1-96.4c6-4.5,13.4-6.7,20.9-6.7l1.8,0c10.8,0,21.2,4.6,27.6,13.1
		c2,2.7,3.5,6.2,4.3,9.3c0.4,1.4,0.5,2.9,0.5,4.4c0,17.9-4.7,35.6-14.4,50.8c-2.9,4.5-6.3,9.1-10.5,13.5
		c-8.8,9.4-21.4,14.5-34.4,14.5c-0.2,0-0.4,0-0.6,0c0,0-3.4-1-4-3.7c0,0-5.5,7.3-5.3,21.6l0.2,16c0,3.5,1,6.9,2.9,9.8
		c1.1,1.7,2.6,3.2,4.3,3.6l3.6,0.2c0,0,44.8-25.9,75.5-108.1c2.8-7.4,5.1-14.9,7.1-22.6c2.1-8,6.6-22.4,14.3-35.1
		c2.5-4.2,7-6.7,11.8-6.7c0.9,0,1.8,0.1,2.7,0.3c0.1,0,0.2,0,0.3,0.1c10.3,2.2,16.1,12.5,12.5,22.2c-1.1,3-2.9,6.5-5.6,10.4
		c0,0-12,30.5-11.1,34.2c0,0,5.4-2.2,16.3-27.8c2.8-6.5,8.9-11.2,16.1-11.6c0.4,0,0.8,0,1.3,0c0.8,0,1.5,0,2.3,0.1
		c11.8,1.1,20.8,10.8,21.7,22.5c1.2,16.1,3.5,41.8,6,50.6c0,0,8.9-43.3,18.3-60.2c2-3.6,5.9-5.8,10-5.8l10.7,0
		c6.9,0,13,4.5,14.5,11.1c0,0.1,0,0.2,0.1,0.3c0,0-11.4,29.1-22.4,72.6c0,0-0.4,11.2,5.1,16.2c0,0,13.1-5,25.8-34.9
		c12.7-29.9,9.3-22.4,15.2-33.6c4.2-7.9,7.3-22.7,11.8-36.8c3.3-10.4,12.8-16.3,22.5-16.3c6.2,0,12.5,2.4,17.2,7.6
		c0.2,0.2,0.4,0.4,0.5,0.6c0,0-1.7,16.2-21.6,57.3c0,0,44.4-66,54.1-66.8c10,0.7,26-1.8,32,10.3c2,4,2.1,8.7,0.9,12.9
		c-4,13.6-15.5,54.1-17,71.6l0.6,10l1.3,3.1l4.4-0.6c0,0,6.8-4.2,23.6-29.2c1.9-2.8,3-5.9,3.4-9.2c0.7-5.7,3.1-16.4,4.3-19.1
		c0.6-1.4,1.5-3,1.9-4.1c3.7-9.8,17.7-48.1,54.4-76.6c0,0,4.9-2,11.4-2c4.4,0,9.5,0.9,14.4,3.9c12.3,7.5,12.3,7.5,12.3,7.5
		s4.4-16.6,16.5-17l5.4-0.2c0.3,0,0.5,0,0.8,0c2.9,0,5.7,0.6,8.3,1.8c5.1,2.5,6.9,5.3,6.8,8.8c-0.1,2-0.3,4-0.4,6
		c-0.2,8-1.5,28.4-8.8,54.7c-2.6,9.5-1.8,12.9,0.9,12.9c6.9,0,25.8-23.4,25.8-23.4s7.6-9.3,19-12.5c0.6-0.2,1.1-0.2,1.6-0.2
		c3.5,0,3.9,4.1,3.2,9c-1.4,9.5-6.7,17.9-14.5,23.7c-5.8,4.3-13.7,10.4-22.5,17.9c-15.5,13.2-27.4,30.1-34.5,49.1
		c-14.4,37.9-43.7,106.6-71.2,117.3c-6.1,2.4-11.5,3.4-16.2,3.4c-24.8,0-30.8-29.2-26-47c4.6-17,56.9-72,77.4-93.1
		c8.6-8.8,14.5-19.9,16.3-32c0.6-4.3,0.7-8.7,0-13.1c0,0-20.1,34.1-41.9,56c-5.7,5.7-13.5,9-21.4,9c-2.9,0-5.8-0.4-8.6-1.3
		c-3.3-1.1-6.5-2.7-9.2-5.2c0,0-14.6,26.1-31.1,29.3c-3,0.6-6.3,0.9-9.5,0.9c-14.6,0-30-5.9-31.1-20.2c-1.3-17.4,1.3-51.7,6.3-66.6
		c0,0-22.9,23.6-53,93.9c-3.5,8.3-11.8,13.8-20.6,13.8c-1.6,0-3.2-0.2-4.7-0.5c-9.4-2.2-16.8-10.7-9.2-36.3c0,0-15.7,34.6-37.9,34.6
		c-4.3,0-8.9-1.3-13.6-4.4c-9.8-6.4-15-17.8-14.3-29.4l1.1-20.1c0,0-5.1,1.1-11.3,1.1c-8.8,0-19.9-2.1-22.9-12.3
		c0,0,2.5-8.7-1.9-24.9c0,0-42.7,31.7-46.3,104l-0.2,3.6c-0.4,6.9-3,13.5-7.8,18.5c-2.6,2.7-5.8,4.9-9.2,4.9c-2.7,0-5.5-1.3-8.4-4.7
		c-3.7-4.4-5.5-9.9-5.6-15.6l-0.5-37.2L485.4,605c0,0-19,17-36.6,17c-1.1,0-2.3-0.1-3.4-0.2c0,0-8.9,14.9-34.9,22.4
		c-4.9,1.4-9.9,2.3-14.8,2.3c-20.7,0-39.2-16.8-42.3-83.9c0,0-11.8,32.6-43.2,50.4c-3.8,2.2-8,3.2-12.2,3.2
		c-8.7,0-17.1-4.5-21.3-12.6c-4.2-8.1-6.4-20.9-3.5-41.1c0,0-25.7,54.2-48.8,66.6c0,0-2.6,0.9-6.7,0.9c-7.5,0-20.2-3.1-31.7-20.9
		c0,0-46.9,79.1-107.8,82.2H59.7c-3.3,0-6.5-0.5-9.6-1.5c-12.8-4.2-39.7-20.1-44.8-80.7c-6.5-76.8,29.6-221.5,111.3-258.6
		C124,347.4,132.2,345.8,140.4,345.8 M140.4,341.8c-9,0-17.6,1.8-25.5,5.4c-19.9,9-38.2,24.7-54.3,46.5
		c-14.2,19.3-26.5,42.9-36.5,70.1C6.5,512-2.3,567.9,1.3,609.7c2.3,27.1,9.1,48.5,20.3,63.6c9.5,12.8,20.1,18.3,27.3,20.6
		c3.4,1.1,7,1.6,10.8,1.6h18.5h0.1l0.1,0c14.6-0.7,29.5-5.7,44.4-14.7c11.8-7.1,23.6-16.8,35-28.8c13.7-14.3,23.6-28.3,28.4-35.5
		c11.9,15.2,24.6,17.7,31.5,17.7c4.7,0,7.7-1,8-1.2l0.3-0.1l0.3-0.1c15.7-8.4,32-34,41.7-51.4c0.2,9.7,2,17.8,5.2,24.2
		c4.7,9.1,14.2,14.7,24.8,14.7c5,0,9.9-1.3,14.2-3.7c19.4-11,31.6-27.2,38.3-38.7c2.2,24.2,6.8,41.9,14.1,54
		c7.5,12.4,18,18.7,31.2,18.7c4.8,0,10-0.8,15.9-2.5c21.6-6.2,32.1-17.4,35.7-22.1c0.5,0,1,0,1.4,0c18.9,0,38.4-17.3,39.3-18
		l0.2-0.2l0.2-0.2l22.3-26.6l0.4,26.4c0.1,6.8,2.4,13.3,6.5,18.1c3.4,4.1,7.3,6.1,11.4,6.1c4.1,0,8.2-2,12.1-6.1
		c5.3-5.5,8.5-13,8.9-21.1l0.2-3.6c1.8-36.2,13.8-61.7,23.6-76.8c6.2-9.5,12.3-16.1,16.3-20c2,10.6,0.5,16.3,0.4,16.4l-0.3,1.1
		l0.3,1.1c2.8,9.8,12.3,15.2,26.8,15.2c2.6,0,5.1-0.2,7.1-0.4l-0.9,15.2c-0.8,13.3,5.4,25.9,16.1,32.9c5.1,3.4,10.5,5.1,15.8,5.1
		c12.9,0,23.5-9.8,30.8-19.3c0.1,4.7,1.2,8.7,3.1,12c2.6,4.5,6.8,7.5,12.3,8.8c1.9,0.4,3.8,0.6,5.7,0.6c10.4,0,20.1-6.5,24.3-16.3
		c17.3-40.4,32.2-65.2,41.6-78.9c-2.5,16.6-3.5,37.5-2.6,50.3c0.6,7.9,4.9,14.4,12.5,18.6c6,3.4,14.1,5.3,22.6,5.3
		c3.5,0,7-0.3,10.3-0.9c14.2-2.7,26.4-19.5,31.5-27.3c2,1.3,4.3,2.3,6.8,3.1c3.2,1,6.5,1.5,9.8,1.5c9,0,17.8-3.7,24.2-10.2
		c13.9-14,26.9-32.5,34.8-44.5c-1.9,10.3-7,19.9-14.9,28c-27.3,28.1-73.8,77.7-78.4,94.8c-3.1,11.4-2.3,29.1,6.7,40.8
		c5.6,7.3,13.6,11.2,23.1,11.2c5.4,0,11.3-1.2,17.7-3.7c13-5.1,27.3-22,42.6-50.3c12.8-23.6,23.9-50.8,30.9-69.3
		c7-18.3,18.5-34.7,33.4-47.4c9-7.7,17.1-13.8,22.3-17.7c8.7-6.4,14.6-16,16.1-26.3c0.8-5.3,0.2-8.9-1.8-11.2
		c-1.3-1.5-3.2-2.4-5.3-2.4c-0.8,0-1.7,0.1-2.6,0.4c-12.5,3.4-20.7,13.4-21.1,13.8c-7.9,9.8-16.9,18.7-21.1,21.3
		c0.1-1.3,0.4-3.6,1.4-7.2c7.5-27,8.8-47.9,9-55.7c0-1,0.1-2,0.2-3c0.1-0.9,0.1-1.9,0.2-2.9c0.2-5.4-2.7-9.5-9-12.5
		c-3-1.5-6.4-2.2-10.1-2.2c-0.3,0-0.6,0-0.9,0l-5.4,0.2c-10.2,0.4-15.8,9.3-18.4,15.1l-8.1-4.9c-4.9-3-10.4-4.5-16.4-4.5
		c-7.2,0-12.7,2.2-12.9,2.3l-0.5,0.2l-0.4,0.3c-15.7,12.2-29.2,27.6-40.1,45.7c-8.7,14.5-13.4,26.8-15.4,32.1l-0.2,0.5
		c-0.2,0.5-0.5,1.2-0.9,1.9c-0.3,0.6-0.7,1.3-1,2c-1.5,3.4-4,14.6-4.6,20.2c-0.3,2.7-1.3,5.3-2.7,7.5c-13.1,19.5-19.9,26-21.9,27.6
		l-0.2,0l-0.5-8.6c1.7-17.4,13.3-58.3,16.9-70.5c1.6-5.5,1.2-11.1-1.1-15.8c-6-12.1-19.6-12.3-29.6-12.4c-2.1,0-4,0-5.7-0.2l-0.3,0
		l-0.3,0c-2.6,0.2-6.2,1.8-15.2,12.1c-5,5.7-11.1,13.5-18.4,23.2c-0.4,0.6-0.8,1.1-1.3,1.7c5.8-15.7,6.6-22.6,6.6-23.1l0.2-1.7
		l-1.2-1.3c-0.2-0.2-0.4-0.4-0.6-0.7c-5.2-5.8-12.4-9-20.1-9c-12.2,0-22.7,7.7-26.3,19.1c-1.5,4.8-2.9,9.7-4.2,14.3
		c-2.4,8.7-4.7,16.9-7.3,21.8c-0.9,1.8-1.6,3.1-2.2,4.1c-2.6,4.7-2.6,4.7-8.2,18.2c-1.3,3.1-2.9,6.9-4.9,11.6
		c-8.5,19.9-17,28.1-21.1,31.2c-1.7-3.4-2.1-8.2-2.1-10.4c10.8-42.6,22-71.4,22.1-71.7l0.4-1.1l-0.3-1.2l-0.1-0.3
		c-1.9-8.2-9.6-14.2-18.4-14.2l-10.7,0c-5.6,0-10.8,3-13.5,7.9c-5.4,9.7-10.6,27.5-14.1,41.4c-0.9-8.1-1.8-18.3-2.7-30.1
		c-0.5-6.6-3.3-12.8-7.9-17.6c-4.7-4.9-10.9-7.9-17.5-8.5c-0.9-0.1-1.8-0.1-2.7-0.1c-0.5,0-1,0-1.5,0c-5.7,0.3-11.1,3-15.1,7.2
		c1.4-2.4,2.5-4.7,3.3-7c2.1-5.6,1.7-11.8-1.2-17c-2.9-5.3-8.1-9.2-14.2-10.5L571,419c-1.1-0.2-2.3-0.4-3.5-0.4
		c-6.2,0-12,3.3-15.3,8.7c-8,13.2-12.7,28.3-14.7,36.1c-2,7.6-4.4,15.1-7,22.2c-15.5,41.6-34.8,68.2-48.2,83.2
		c-12,13.5-21.6,20.2-24.6,22.2l-1.7-0.1c-0.4-0.2-1.1-0.8-1.8-1.9c-1.4-2.1-2.2-4.8-2.2-7.7l-0.2-16c-0.1-6.6,1.1-11.5,2.3-14.7
		c0.9,0.5,1.6,0.7,1.8,0.8l0.5,0.2l0.6,0c0.2,0,0.4,0,0.7,0c14.2,0,27.8-5.7,37.3-15.7c4-4.2,7.7-9,10.9-14.1
		c9.8-15.4,15-33.7,15-53c0-2-0.2-3.7-0.6-5.4c-1-3.9-2.8-7.9-5-10.8c-6.9-9.2-18.4-14.7-30.8-14.7l-1.8,0c-8.5,0-16.8,2.7-23.3,7.5
		c-14.1,10.5-26.4,28.1-36.7,52.2c-8.1,18.9-12.8,37.3-14.9,46.5c-0.8,3.4-2.2,17.1-2.2,20.4l-0.1,12.1c-0.1,8.2,2.6,16.2,7.4,22.7
		c3,3.9,6,7.1,8.3,9.2c-5.5,4.8-10.4,7.3-14.2,7.3c-4.4,0-8.1-3.6-10.7-10.8c-1.6-4.4-2.7-16.3-2.7-23v-30.1
		c8.4-44.4,21.6-79.6,31.2-101.3c8.2-18.5,15.2-30.7,17.9-35.1c2.4,0.1,6.6,0.1,11.7,0.1c4.7,0,9.2-0.1,13.3-0.2c0.2,0,0.4,0,0.6,0
		c12.2,0,25.4,9.9,25.6,10l6.4,4.8l0-8v-16.8v-0.1l0-0.1c-0.6-9.2-5.2-16.1-13.5-20.1c-5.5-2.7-12.5-4.1-20.9-4.1c-1,0-2,0-2.9,0.1
		c7.5-9.3,6.5-14.6,5.6-16.6c-6.9-18.6-20.1-21.3-27.4-21.3c-4.3,0-7.4,1-7.7,1.1l-0.3,0.1l-0.3,0.1c-13.2,6.5-25.4,32.1-28.9,40.1
		c-57,8.1-63,22.9-63.6,25.9l-0.1,0.2l0,0.3c-1.5,17.6,15.9,27.4,16.6,27.8l2.6,1.4l2.1-2c8.6-8.3,18-11.4,23.6-12.5
		c-21.7,84-65,145.2-71,151.8c-0.5,0.1-1.2,0.2-1.9,0.2c-0.4,0-0.7,0-0.9-0.1c-0.1-0.1-0.1-0.2-0.2-0.3l0.2-7.6
		c0.2-8.4,1.5-16.6,4-24.5c4.4-14,9.4-26.8,13.5-37c7.6-19.4,10.9-28.1,8.2-33.5c-0.8-1.5-1.1-2.4-1.4-3.1c-1.1-2.7-2.1-3.4-4.7-4.4
		c-1.4-0.6-3.7-1.5-8-3.7c-4.6-2.3-8.7-3.5-12.2-3.5c-6.2,0-9,3.5-9.8,4.8L286,485.1c-9.3-5.3-17.2-8-21.2-9.2
		c-2.1-0.6-4.3-0.9-6.6-0.9c-0.4,0-0.7,0-1.1,0l-6.4,0.3l-0.3,0l-0.3,0.1c-11.9,2.6-23.8,13.4-35.3,32.3c-9.1,15-15.8,31.6-19,40.2
		c-1.6,4.2-3.7,8.2-6.3,11.9c-30.8,43.6-73.8,95.5-104.1,95.5c-12.3,0-21.6-9-27.4-26.6c-3-9-4.5-18.9-4.4-29.4l0.1-10.4
		c0-1.6,0-3.1-0.1-4.7c-0.1-2.5,0-6.2,0.2-11c0.5-8.2,1.7-16.6,3.6-24.8c14.8-64.8,32.2-111.6,51.7-139.1
		c16.1-22.8,28.7-24.6,32.1-24.6c0.8,0,1.3,0.1,1.6,0.1c3.2,0.6,4.9,4.1,5.5,5.5c1.5,3.4,1.7,7.5,1.8,8.8v11.1
		c0,18.7-2.3,37.3-6.8,55.5c-12.7,50.8-25.5,74.1-25.7,74.3l-1.6,2.8l2.4,2.1c11.2,10.1,22.3,15.3,33.1,15.3
		c11.8,0,18.8-6.3,19.1-6.6l0.9-0.8l0.3-1.1c13.8-52.7,20.3-96.9,19.3-131.5c-0.8-27.1-6-47.9-15.7-61.8c-6.3-9.1-14.8-15-22.6-15.9
		c-3.6-0.4-7.2-0.6-10.5-0.7C141.6,341.8,141,341.8,140.4,341.8L140.4,341.8z"/>
</g>
<path class="st2" d="M829.5,392c0,0-34.7,10.4-80.8-2.1C698.7,376.2,628,369.1,615.4,378c-18.4,13-14.1,43.9,82.5,35.6
	c3.3-0.3,6.6,1.1,8.2,4c1.3,2.5,1.6,8.4-4.9,8.9c-12.1,1.1-51.7,5.3-88.2,0c-35.6-5.1-47.8-34.7-46.6-54.6
	c1.2-21.9,31.1-34.9,62.2-34.2s132.1,37.2,148.3,41.1c16.1,4,32.8,9.1,51.8,7.8C847.7,385.5,829.5,392,829.5,392z"/>
<path class="st3" d="M580.3,297.5c0,0,80.3-58.1,216.5-43.2c0,0,43.1,5,53.3,31.5v51.9c0,0-75.3-31.9-163.2-11.2
	c0,0,114.2,4.2,192.8,69.7l-4.2-122c0,0,84,25.1,128.6-39.2c12.9-18.6,19.4-40.8,19.4-63.4v-6.2c0-22.5-7.8-44.4-22.7-61.2
	C981.5,82.4,947.9,65.3,892,90.8c0,0,0.8-78.9-110.8-85.5c0,0-60.5-3.7-109.1,50.6c0,0-26.6,28.6-113.3,53.1c0,0,42.7,5.4,87.1-12
	c44.4-17.4,53.9-35.5,87.2-46.4c33.3-10.9,68.2-17.3,99.1-0.3c15.4,8.5,23.7,17.3,28.8,26.3c7.7,13.5,9.1,29.7,4.5,44.5
	c-2.3,7.5-4.7,15.2-5.6,18c-1.9,6.2,18.2-34.7,63.4-37.1c15.1-0.8,28.3,1.8,39.2,6.6c23.1,10,37.7,33.2,37.7,58.4v0
	c0,23.1-8.3,45.7-23.9,62.7c-4,4.4-8.7,8.7-14,12.5c-12.5,9-27.5,13.7-42.9,14l0,0c-20.4,0.4-40.6-3.8-59-12.5
	c-3.7-1.7-7.4-3.7-10.9-5.8c0,0,26.3-18.7,25.7-52.6c0,0-17.4,33.6-52.6,43.6c0,0-17.8,1.2-28.2-1.6c0,0,36.2-27.7,21.2-93.4
	c0,0-2.5,67.5-59.6,87.8c-57.1,20.2-1.6,0.3-1.6,0.3l-18.4,0.6c0,0,21.9-15.3,11.4-53.8c0,0-3.2,42-70.4,62.6H636
	c0,0-51.1-5.6-74.5-60.7c0,0-11.7,39.2,47.3,72.8c0,0-4.4,16.2-44.1,25.2l-17.5,0.2c0,0-56.7-4.6-69.4-85.5v-14.3
	c0,0,1.3-66.6,85-77.8s95.8-51.7,95.8-58.5c0,0-12.1,37.4-123.1,44.8c0,0-72.3,10-90.1,86.5v39.8
	C445.4,204.1,466.6,309.3,580.3,297.5z"/>
<path class="st4" d="M415.6,334.9c0,0,10.8-8.7,23.5-9.3l-40.6-82.8c0,0,40-11.8,20.3-85.9c0,0-42.3-99.2-98.1-85.9
	c0,0-44,17.4-10.1,126.2c0,0,22,61.4,76.1,51.5L415.6,334.9z"/>
<path class="st4" d="M328.2,397.6l1.3-2.7c0.9-1.9,0.9-4.1,0-6c-5.5-10.6-24-46.8-32.2-66.8c-2.6-6.3-1.9-13.3,1.7-19.1
	c2-3.2,4.3-6.8,6.6-10.3c4.5-6.9,6.1-15.2,4.5-23.3c-0.3-1.4-0.6-2.9-1-4.3c-1.7-7.3-56-132.2-66.2-155.6c-1.4-3.2-5.1-5-8.4-3.8
	c-1.4,0.5-2.7,1.5-3.4,3.4c-0.6,1.5-0.5,3.2,0.1,4.7l55.1,134.5c0,0,2.1,13.1-7.1,6.1c-1.2-0.9-2.5-2.3-3-3.7l-53.2-133.9
	c-0.6-1.6-2.3-3.4-3.9-4.1c-2.6-1.1-7-0.4-7,6.9c0,0.8,0.2,1.6,0.5,2.3l53.8,133.5c0.2,0.5,0.4,1.1,0.4,1.7
	c0.4,2.9,0.9,11.5-6.3,4.1c-0.6-0.6-1-1.3-1.3-2l-55.1-134.2c-0.7-1.6-1.9-2.9-3.5-3.6c-3.7-1.6-9.8-2.8-8.9,7.2
	c0.1,0.6,0.2,1.3,0.5,1.9l55.4,134.8c0,0,1.1,9.3-5.5,4.3c-1-0.7-1.7-1.7-2.1-2.8l-55.2-133.9c-0.5-1.1-1.2-2.1-2.2-2.8
	c-3.2-2.4-10.1-6.2-11,6.1c-0.1,0.9,0.1,1.9,0.4,2.8L223.4,273c0,0.1,0.1,0.2,0.1,0.4c0.6,2,7,21.5,19.6,30.3
	c12.1,8.5,25.7,12.3,28.2,13c0.3,0.1,0.6,0.2,0.9,0.3c1.8,0.7,7.9,3.6,8.4,7.3l22.2,65.2c0.6,1.9,2,3.3,3.9,4.1
	c2.8,1.1,7.2,3.2,11,6.3C321.1,402.7,326.3,401.6,328.2,397.6z"/>
<path class="st5" d="M199.5,361.6c0,0,2.7-13.5,27.3-45.7c0,0-4.7-2.7-7-10.2c0,0-23.9,31.3-29.2,44.8
	C190.7,350.6,194.3,349.2,199.5,361.6z"/>
<path class="st5" d="M184.1,341.7c0,0,13.3-26.5,31.4-45.8c0,0-5.4-7.2-8.6-21.8c0,0-19.7,21.2-39,57
	C167.9,331.1,177.6,332.8,184.1,341.7z"/>
<path class="st6" d="M229.9,585.1c5.5-6.1,20.4-25,43.3-70.7c0,0-2.5-13.4-7.6-11.8c-5.1,1.6-27,19-41.2,85l0,0
	C226.5,587.6,228.5,586.7,229.9,585.1z"/>
<path class="st2" d="M224.4,465.9c0,0,28.2-19.3,70.7-19c0,0,18.1-1.9,19.7-15.3c1.6-13.4-2-16.5-17-22.1c0,0-40.7-2.5-82.2,47.3
	C215.5,456.9,208.2,471,224.4,465.9z"/>
<path class="st6" d="M464.5,528.1c3.1-1.8,16.2-10.9,23-39.3c0.7-3,1.1-6,1.1-9.1v-2.3c0-1.4-1.1-2.5-2.5-2.5l0,0
	c-0.8,0-1.6,0.4-2,1c-3.3,4.5-16.7,23.8-24,48.2c-0.6,2.1,1,4.3,3.2,4.3l0,0C463.6,528.5,464.1,528.4,464.5,528.1z"/>
<path class="st6" d="M881.6,507.9c0,0,29.1-33.5,43-64.9c1.8-4.2,2.7-8.7,2.7-13.2v0c0-2.6-3.2-3.9-5-2c0,0-0.1,0.1-0.1,0.1
	c-2.7,3.1-21.6,18.7-46.1,73.5C876.1,501.3,873.8,510.4,881.6,507.9z"/>
<path class="st7" d="M897.3,572.7c0,0-14.4,42.7-32.1,62.3h-0.6c-2.2,0-4.1-1.8-4-4c0-1.1,0.3-2.3,1-3.5c2.3-3.9,7.4-24.9,33.6-55.8
	L897.3,572.7z"/>
<path class="st2" d="M975.5,604.9c0.6,0,1.3,0.1,2.2,0.2c10.6,1.7,9.5,17.2-1.2,17.5c-0.2,0-0.4,0-0.6,0c-0.8,0-1.6,0-2.3-0.1
	c-10.3-1.3-10.5-15.7-0.3-17.4c0.1,0,0.2,0,0.3-0.1C974.3,604.9,974.9,604.9,975.5,604.9z"/>
<path class="st2" d="M940.2,619.6c0,0,22.8-9.1,0-18.3c-22.8-9.1-856.3-29.9-861.4,117c0,0,0.8,13.3,16.9,13.3
	C95.7,731.6,324.7,602.8,940.2,619.6z"/>
<path class="st8" d="M183.7,713.4c0,0,100.3,171,328,169.3C739.3,881,829,705.1,845.9,678.5l-17.3-11.4c0,0-90.8,195.7-316.9,195.7
	S201.9,704.7,201.9,704.7L183.7,713.4z"/>
<path class="st8" d="M213.9,707.1c0,0,105.2,151.9,297.8,148.2c192.6-3.7,290.5-149.8,305.5-188.2l-10.1-3.9
	c0,0-78.1,175.9-295.3,180.9c0,0-158.4,16.2-284.9-138.2L213.9,707.1z"/>
<polygon class="st9" points="519.4,689.7 525.8,671 535.5,688.1 553.3,689.7 540.6,701.3 546.5,718.8 529.6,711.3 514.6,721.3 
	517.3,705.1 501.3,693.4 "/>
<polygon class="st9" points="606.6,667.1 612.9,651.1 620.1,667.1 634.9,667.1 624.3,676 631.1,691.6 615.9,683.9 602.7,693.9 
	606.1,679.8 590.9,669 "/>
<polygon class="st9" points="429.4,678.7 434.9,663.4 442.9,676.7 459,678.7 447.6,688.3 453.5,704.5 439.1,695.3 425.1,706.5 
	428.9,690.6 415,682.1 "/>
<g>
	<path class="st1" d="M357.3,778.2c0,0-5.1,4.4-7.4,13.6c-0.9-0.2,26.8,10.1,71.1-71c0.1,0.3-27-10.2-22.9,15.5
		c0.1,0-4.9,4.4-13.8-5c-0.4-0.4-7.5-27.3,25.6-22.9c-0.1,0.4,29.2,9.8,32.9,10.7c0,0,9.8,2.3,12.8,1.4c0,0,3.9,3-0.8,7.9
		c0,0-1.1,0.7-3.4,0.2c-8.4,24.2-17.4,48.3-27,72.2c-0.2-0.2-4.5,18,21.4,6.1c6.9-21.2,13.4-42.5,19.6-64c0,0,2-3.8-4.2-1.9
		c0,0-4.9-3.4,1.7-8c0,0,7.9-6.3,18-4.3c0,0,6.4,2.9,2.5,10.2c-3.8,16.5-7.8,32.9-12,49.2c0.2,0.2,25.3-0.7,16.1-24.1
		c0.1,0,6.6-10.6,17.1-4.3c-0.4-0.2,14.1,17.1-15.6,31.9c-0.5-0.1,10.3,35.2,28.8,18.3c2.2-14.7,4.2-29.4,6-44.2
		c-2.5,0.1-5,0.2-7.5,0.2c0,0-2.7-8.7,8.5-8.3c0.6-4.8,1.2-9.7,1.8-14.6c0.1,0,5.2-10.4,17-5.8c-0.3,6.1-0.6,12.3-1,18.4
		c3.5-0.4,7-0.9,10.5-1.4c0,0,2.8,7.6-4.6,8.7c-2.3,0.3-4.5,0.6-6.8,0.8c-1,13.8-2.2,27.7-3.5,41.5c-0.2-0.1-1.6,17.7,21.4,0.5
		c-0.6-0.3-9.6-43.4,23-58.1c0,0,11.1-4,18.7-0.6c0.1,0,4.8-8.5,15.7-7.1c2.2,16.8,4.3,33.5,6.1,50.4c-0.2-0.1,3.6,13.4,19.8-5.9
		c-2-12.6-4.1-25.2-6.3-37.7c0,0-1.5-4.1-4.8,0.7c0,0-2.3,0.4-3.7-4.9c0,0,4.3-9.5,12-13.4c0,0,8.4-5.5,10.5,2.9
		c3.2,14,6.3,28,9.3,42.1c0,0,2.8,7.5,10.2,1.7c0,0,6.2-2.8,8.5-11.5c-3.5-13.5-7.1-27-10.8-40.4c0.1-0.1-0.1-11.9,13.7-13.1
		c5.5,15.9,10.7,31.9,15.8,48c-0.2,0,7.6,14.1,19.7-11.9c0,0,7.8-1.5,3.7,7.1c0.1-0.1-5.1,19.3-20.4,24.9c0.1,0-9.7,6.3-18.5-7.2
		c0-0.1-0.2,17-15.4,23.3c0.1,0-11.9,6.6-20.3-4.4c0-0.1-4.9,12.8-19.2,18.7c-14.3,5.8-20.8-4-21.3-9c0-0.1-3.2,13.7-19.5,19.5
		c0.1,0-14,5.1-23.7-8.4c0.1-0.1-10,13.5-27.8,16c0,0.1-14.5,1.6-16.4-9.3c0.1,0-10.1,10.4-20.5,10.9c0.3,0.1-18.9,3.1-24.4-33.9
		c-1.5,0.1-3,0.2-4.5,0.4c-2.4,8.7-4.8,17.4-7.3,26c0.1,0-6.3,9.5-21.3,1.6c0.9-2.4,1.9-4.8,2.8-7.2c0,0-9.7,7.8-25.9,6.2
		c0,0.1-18.2-3.7-15.8-17.2c3.6-7.8,7.2-15.6,10.7-23.5c-6.3-1.3-12.7-2.8-19-4.5c0.2-0.1-20.8,31.9-49,25.6c0,0.1-18.6-4.7-11-27
		C333,775.5,340.6,763.6,357.3,778.2z"/>
	<path class="st4" d="M357.3,778.2c0,0-5.1,4.4-7.4,13.6c-0.9-0.2,26.8,10.1,71.1-71c0.1,0.3-27-10.2-22.9,15.5
		c0.1,0-4.9,4.4-13.8-5c-0.4-0.4-7.5-27.3,25.6-22.9c-0.1,0.4,29.2,9.8,32.9,10.7c0,0,9.8,2.3,12.8,1.4c0,0,3.9,3-0.8,7.9
		c0,0-1.1,0.7-3.4,0.2c-8.4,24.2-17.4,48.3-27,72.2c-0.2-0.2-4.5,18,21.4,6.1c6.9-21.2,13.4-42.5,19.6-64c0,0,2-3.8-4.2-1.9
		c0,0-4.9-3.4,1.7-8c0,0,7.9-6.3,18-4.3c0,0,6.4,2.9,2.5,10.2c-3.8,16.5-7.8,32.9-12,49.2c0.2,0.2,25.3-0.7,16.1-24.1
		c0.1,0,6.6-10.6,17.1-4.3c-0.4-0.2,14.1,17.1-15.6,31.9c-0.5-0.1,10.3,35.2,28.8,18.3c2.2-14.7,4.2-29.4,6-44.2
		c-2.5,0.1-5,0.2-7.5,0.2c0,0-2.7-8.7,8.5-8.3c0.6-4.8,1.2-9.7,1.8-14.6c0.1,0,5.2-10.4,17-5.8c-0.3,6.1-0.6,12.3-1,18.4
		c3.5-0.4,7-0.9,10.5-1.4c0,0,2.8,7.6-4.6,8.7c-2.3,0.3-4.5,0.6-6.8,0.8c-1,13.8-2.2,27.7-3.5,41.5c-0.2-0.1-1.6,17.7,21.4,0.5
		c-0.6-0.3-9.6-43.4,23-58.1c0,0,11.1-4,18.7-0.6c0.1,0,4.8-8.5,15.7-7.1c2.2,16.8,4.3,33.5,6.1,50.4c-0.2-0.1,3.6,13.4,19.8-5.9
		c-2-12.6-4.1-25.2-6.3-37.7c0,0-1.5-4.1-4.8,0.7c0,0-2.3,0.4-3.7-4.9c0,0,4.3-9.5,12-13.4c0,0,8.4-5.5,10.5,2.9
		c3.2,14,6.3,28,9.3,42.1c0,0,2.8,7.5,10.2,1.7c0,0,6.2-2.8,8.5-11.5c-3.5-13.5-7.1-27-10.8-40.4c0.1-0.1-0.1-11.9,13.7-13.1
		c5.5,15.9,10.7,31.9,15.8,48c-0.2,0,7.6,14.1,19.7-11.9c0,0,7.8-1.5,3.7,7.1c0.1-0.1-5.1,19.3-20.4,24.9c0.1,0-9.7,6.3-18.5-7.2
		c0-0.1-0.2,17-15.4,23.3c0.1,0-11.9,6.6-20.3-4.4c0-0.1-4.9,12.8-19.2,18.7c-14.3,5.8-20.8-4-21.3-9c0-0.1-3.2,13.7-19.5,19.5
		c0.1,0-14,5.1-23.7-8.4c0.1-0.1-10,13.5-27.8,16c0,0.1-14.5,1.6-16.4-9.3c0.1,0-10.1,10.4-20.5,10.9c0.3,0.1-18.9,3.1-24.4-33.9
		c-1.5,0.1-3,0.2-4.5,0.4c-2.4,8.7-4.8,17.4-7.3,26c0.1,0-6.3,9.5-21.3,1.6c0.9-2.4,1.9-4.8,2.8-7.2c0,0-9.7,7.8-25.9,6.2
		c0,0.1-18.2-3.7-15.8-17.2c3.6-7.8,7.2-15.6,10.7-23.5c-6.3-1.3-12.7-2.8-19-4.5c0.2-0.1-20.8,31.9-49,25.6c0,0.1-18.6-4.7-11-27
		C333,775.5,340.6,763.6,357.3,778.2z"/>
</g>
<g>
	<path d="M404.7,771.2c4.3,1,8.6,1.9,12.9,2.9c7.3-16.1,14.5-32.3,21.8-48.4c-2.4-0.8-4.8-1.5-7.1-2.3
		C423,739.3,413.9,755.2,404.7,771.2z"/>
	<path class="st4" d="M404.7,771.2c4.3,1,8.6,1.9,12.9,2.9c7.3-16.1,14.5-32.3,21.8-48.4c-2.4-0.8-4.8-1.5-7.1-2.3
		C423,739.3,413.9,755.2,404.7,771.2z"/>
</g>
<g>
	<path d="M599,756.9c0.5,12.5,1.1,24.9,1.6,37.4c0,0-10,21.4-19.6,6.3c0,0-9.7-32.6,8.6-42.6C589.7,758,595.2,756,599,756.9z"/>
	<path class="st4" d="M599,756.9c0.5,12.5,1.1,24.9,1.6,37.4c0,0-10,21.4-19.6,6.3c0,0-9.7-32.6,8.6-42.6
		C589.7,758,595.2,756,599,756.9z"/>
</g>
</svg>
